<?xml version="1.0" encoding="utf-8"?>
<svg width="163px" height="48px" viewBox="0 0 163 48" version="1.1" xmlns:xlink="http://www.w3.org/1999/xlink" xmlns="http://www.w3.org/2000/svg">
  <desc>Created with Lunacy</desc>
  <defs>
    <rect width="163" height="48" id="artboard_1" />
    <clipPath id="clip_1">
      <use xlink:href="#artboard_1" clip-rule="evenodd" />
    </clipPath>
  </defs>
  <g id="buttons/medium/red" clip-path="url(#clip_1)">
    <use xlink:href="#artboard_1" stroke="none" fill="#FFFFFF" />
    <path d="M24 0L139 0Q139.615 0 140.225 0.027978Q140.836 0.055956 141.441 0.111855Q142.046 0.167754 142.645 0.25146Q143.244 0.335166 143.835 0.446507Q144.425 0.557849 145.007 0.6966Q145.589 0.835351 146.16 1.00123Q146.732 1.1671 147.292 1.35977Q147.852 1.55243 148.4 1.77149Q148.948 1.99055 149.482 2.23556Q150.016 2.48056 150.535 2.75102Q151.054 3.02147 151.558 3.31682Q152.061 3.61217 152.548 3.93182Q153.034 4.25146 153.503 4.59475Q153.972 4.93803 154.422 5.30426Q154.872 5.67048 155.303 6.0589Q155.733 6.44732 156.143 6.85714Q156.553 7.26697 156.941 7.69735Q157.33 8.12774 157.696 8.57781Q158.062 9.02789 158.405 9.49673Q158.749 9.96558 159.068 10.4522Q159.388 10.9389 159.683 11.4424Q159.979 11.9458 160.249 12.4651Q160.519 12.9844 160.764 13.5184Q161.009 14.0524 161.229 14.6Q161.448 15.1477 161.64 15.7079Q161.833 16.268 161.999 16.8396Q162.165 17.4111 162.303 17.9929Q162.442 18.5747 162.553 19.1655Q162.665 19.7563 162.749 20.3549Q162.832 20.9536 162.888 21.5588Q162.944 22.1641 162.972 22.7747Q163 23.3853 163 24L163 24Q163 24.6147 162.972 25.2253Q162.944 25.836 162.888 26.4412Q162.832 27.0464 162.749 27.6451Q162.665 28.2437 162.553 28.8345Q162.442 29.4253 162.303 30.0071Q162.165 30.5889 161.999 31.1604Q161.833 31.732 161.64 32.2922Q161.448 32.8523 161.229 33.4Q161.009 33.9476 160.764 34.4816Q160.519 35.0156 160.249 35.5349Q159.979 36.0542 159.683 36.5576Q159.388 37.0611 159.068 37.5478Q158.749 38.0344 158.405 38.5033Q158.062 38.9721 157.696 39.4222Q157.33 39.8723 156.941 40.3027Q156.553 40.733 156.143 41.1429Q155.733 41.5527 155.303 41.9411Q154.872 42.3295 154.422 42.6958Q153.972 43.062 153.503 43.4053Q153.034 43.7486 152.548 44.0682Q152.061 44.3878 151.558 44.6832Q151.054 44.9785 150.535 45.249Q150.016 45.5194 149.482 45.7645Q148.948 46.0095 148.4 46.2285Q147.852 46.4476 147.292 46.6402Q146.732 46.8329 146.16 46.9988Q145.589 47.1647 145.007 47.3034Q144.425 47.4422 143.835 47.5535Q143.244 47.6648 142.645 47.7485Q142.046 47.8323 141.441 47.8881Q140.836 47.944 140.225 47.972Q139.615 48 139 48L24 48Q23.3853 48 22.7747 47.972Q22.1641 47.944 21.5588 47.8881Q20.9536 47.8323 20.3549 47.7485Q19.7563 47.6648 19.1655 47.5535Q18.5747 47.4422 17.9929 47.3034Q17.4111 47.1647 16.8396 46.9988Q16.268 46.8329 15.7079 46.6402Q15.1477 46.4476 14.6 46.2285Q14.0524 46.0095 13.5184 45.7644Q12.9844 45.5194 12.4651 45.249Q11.9458 44.9785 11.4424 44.6832Q10.9389 44.3878 10.4522 44.0682Q9.96558 43.7486 9.49673 43.4053Q9.02789 43.062 8.57781 42.6957Q8.12774 42.3295 7.69735 41.9411Q7.26697 41.5527 6.85714 41.1429Q6.44732 40.733 6.0589 40.3027Q5.67048 39.8723 5.30426 39.4222Q4.93803 38.9721 4.59475 38.5033Q4.25146 38.0344 3.93182 37.5478Q3.61217 37.0611 3.31682 36.5576Q3.02147 36.0542 2.75102 35.5349Q2.48056 35.0156 2.23556 34.4816Q1.99055 33.9476 1.77149 33.4Q1.55243 32.8523 1.35977 32.2922Q1.1671 31.732 1.00123 31.1604Q0.835351 30.5889 0.6966 30.0071Q0.557849 29.4253 0.446507 28.8345Q0.335166 28.2437 0.25146 27.6451Q0.167754 27.0464 0.111855 26.4412Q0.055956 25.836 0.027978 25.2253Q0 24.6147 0 24L0 24Q0 23.3853 0.027978 22.7747Q0.055956 22.1641 0.111855 21.5588Q0.167754 20.9536 0.25146 20.3549Q0.335166 19.7563 0.446507 19.1655Q0.557849 18.5747 0.6966 17.9929Q0.835351 17.4111 1.00123 16.8396Q1.1671 16.268 1.35977 15.7079Q1.55243 15.1477 1.77149 14.6Q1.99055 14.0524 2.23556 13.5184Q2.48056 12.9844 2.75102 12.4651Q3.02147 11.9458 3.31682 11.4424Q3.61217 10.9389 3.93182 10.4522Q4.25146 9.96558 4.59475 9.49673Q4.93803 9.02789 5.30426 8.57781Q5.67048 8.12774 6.0589 7.69735Q6.44732 7.26697 6.85714 6.85714Q7.26697 6.44732 7.69735 6.0589Q8.12774 5.67048 8.57781 5.30426Q9.02789 4.93803 9.49673 4.59475Q9.96558 4.25146 10.4522 3.93182Q10.9389 3.61217 11.4424 3.31682Q11.9458 3.02147 12.4651 2.75102Q12.9844 2.48056 13.5184 2.23556Q14.0524 1.99055 14.6 1.77149Q15.1477 1.55243 15.7079 1.35977Q16.268 1.1671 16.8396 1.00123Q17.4111 0.835351 17.9929 0.6966Q18.5747 0.557849 19.1655 0.446507Q19.7563 0.335166 20.3549 0.25146Q20.9536 0.167754 21.5588 0.111855Q22.1641 0.055956 22.7747 0.027978Q23.3853 0 24 0Z" id="bg" fill="#F62F5E" stroke="none" />
    <g id="Subscribe" fill="#FFFFFF" transform="translate(0 14)">
      <path d="M98.348 7.392Q98.78 7.792 99.468 7.792Q100.156 7.792 100.588 7.384Q101.02 6.976 101.02 6.352Q101.02 5.776 100.588 5.392Q100.156 5.008 99.468 5.008Q98.78 5.008 98.348 5.408Q97.916 5.808 97.916 6.4Q97.916 6.992 98.348 7.392ZM69.604 9.416Q68.62 8.864 67.42 8.864Q65.772 8.864 64.828 9.904L64.828 5.728L62.332 5.728L62.332 17.6L64.716 17.6L64.716 16.608Q65.644 17.728 67.42 17.728Q68.62 17.728 69.604 17.176Q70.588 16.624 71.148 15.624Q71.708 14.624 71.708 13.296Q71.708 11.968 71.148 10.968Q70.588 9.968 69.604 9.416ZM108.124 8.864Q109.324 8.864 110.308 9.416Q111.292 9.968 111.852 10.968Q112.412 11.968 112.412 13.296Q112.412 14.624 111.852 15.624Q111.292 16.624 110.308 17.176Q109.324 17.728 108.124 17.728Q106.348 17.728 105.42 16.608L105.42 17.6L103.036 17.6L103.036 5.728L105.532 5.728L105.532 9.904Q106.476 8.864 108.124 8.864ZM44.988 17.792Q43.66 17.792 42.42 17.432Q41.18 17.072 40.428 16.496L41.308 14.544Q42.028 15.072 43.02 15.392Q44.012 15.712 45.004 15.712Q46.108 15.712 46.636 15.384Q47.164 15.056 47.164 14.512Q47.164 14.112 46.852 13.848Q46.54 13.584 46.052 13.424Q45.564 13.264 44.732 13.072Q43.452 12.768 42.636 12.464Q41.82 12.16 41.236 11.488Q40.652 10.816 40.652 9.696Q40.652 8.72 41.18 7.928Q41.708 7.136 42.772 6.672Q43.836 6.208 45.372 6.208Q46.444 6.208 47.468 6.464Q48.492 6.72 49.26 7.2L48.46 9.168Q46.908 8.288 45.356 8.288Q44.268 8.288 43.748 8.64Q43.228 8.992 43.228 9.568Q43.228 10.144 43.828 10.424Q44.428 10.704 45.66 10.976Q46.94 11.28 47.756 11.584Q48.572 11.888 49.156 12.544Q49.74 13.2 49.74 14.32Q49.74 15.28 49.204 16.072Q48.668 16.864 47.596 17.328Q46.524 17.792 44.988 17.792ZM76.268 17.728Q75.196 17.728 74.172 17.464Q73.148 17.2 72.54 16.8L73.372 15.008Q73.948 15.376 74.764 15.608Q75.58 15.84 76.364 15.84Q77.948 15.84 77.948 15.056Q77.948 14.688 77.516 14.528Q77.084 14.368 76.188 14.256Q75.132 14.096 74.444 13.888Q73.756 13.68 73.252 13.152Q72.748 12.624 72.748 11.648Q72.748 10.832 73.22 10.2Q73.692 9.568 74.596 9.216Q75.5 8.864 76.732 8.864Q77.644 8.864 78.548 9.064Q79.452 9.264 80.044 9.616L79.212 11.392Q78.076 10.752 76.732 10.752Q75.932 10.752 75.532 10.976Q75.132 11.2 75.132 11.552Q75.132 11.952 75.564 12.112Q75.996 12.272 76.94 12.416Q77.996 12.592 78.668 12.792Q79.34 12.992 79.836 13.52Q80.332 14.048 80.332 14.992Q80.332 15.792 79.852 16.416Q79.372 17.04 78.452 17.384Q77.532 17.728 76.268 17.728ZM83.556 17.16Q84.652 17.728 86.028 17.728Q87.388 17.728 88.404 17.152Q89.42 16.576 89.884 15.552L87.948 14.496Q87.292 15.68 86.012 15.68Q85.036 15.68 84.396 15.04Q83.756 14.4 83.756 13.296Q83.756 12.192 84.396 11.552Q85.036 10.912 86.012 10.912Q87.276 10.912 87.948 12.096L89.884 11.056Q89.42 10 88.404 9.432Q87.388 8.864 86.028 8.864Q84.652 8.864 83.556 9.432Q82.46 10 81.844 11.008Q81.228 12.016 81.228 13.296Q81.228 14.576 81.844 15.584Q82.46 16.592 83.556 17.16ZM93.708 10.128Q94.156 9.504 94.916 9.184Q95.676 8.864 96.668 8.864L96.668 11.168Q96.252 11.136 96.108 11.136Q95.036 11.136 94.428 11.736Q93.82 12.336 93.82 13.536L93.82 17.6L91.324 17.6L91.324 8.992L93.708 8.992L93.708 10.128ZM115.948 14L122.46 14Q122.508 13.376 122.508 13.328Q122.508 11.984 121.924 10.968Q121.34 9.952 120.316 9.408Q119.292 8.864 118.028 8.864Q116.732 8.864 115.684 9.432Q114.636 10 114.036 11.016Q113.436 12.032 113.436 13.296Q113.436 14.576 114.044 15.584Q114.652 16.592 115.772 17.16Q116.892 17.728 118.348 17.728Q120.684 17.728 121.9 16.336L120.572 14.896Q120.124 15.328 119.604 15.528Q119.084 15.728 118.412 15.728Q117.436 15.728 116.78 15.264Q116.124 14.8 115.948 14ZM60.012 8.992L60.012 17.6L57.644 17.6L57.644 16.576Q57.148 17.136 56.46 17.432Q55.772 17.728 54.972 17.728Q53.276 17.728 52.284 16.752Q51.292 15.776 51.292 13.856L51.292 8.992L53.788 8.992L53.788 13.488Q53.788 15.568 55.532 15.568Q56.428 15.568 56.972 14.984Q57.516 14.4 57.516 13.248L57.516 8.992L60.012 8.992ZM116.62 11.232Q117.196 10.752 118.044 10.752Q118.876 10.752 119.452 11.24Q120.028 11.728 120.156 12.544L115.916 12.544Q116.044 11.712 116.62 11.232ZM68.564 15.032Q67.948 15.68 66.988 15.68Q66.028 15.68 65.412 15.032Q64.796 14.384 64.796 13.296Q64.796 12.208 65.412 11.56Q66.028 10.912 66.988 10.912Q67.948 10.912 68.564 11.56Q69.18 12.208 69.18 13.296Q69.18 14.384 68.564 15.032ZM100.716 8.992L98.22 8.992L98.22 17.6L100.716 17.6L100.716 8.992ZM107.692 15.68Q108.652 15.68 109.268 15.032Q109.884 14.384 109.884 13.296Q109.884 12.208 109.268 11.56Q108.652 10.912 107.692 10.912Q106.732 10.912 106.116 11.56Q105.5 12.208 105.5 13.296Q105.5 14.384 106.116 15.032Q106.732 15.68 107.692 15.68Z" />
    </g>
  </g>
</svg>