<?xml version="1.0" encoding="utf-8"?>
<svg width="163px" height="48px" viewBox="0 0 163 48" version="1.1" xmlns:xlink="http://www.w3.org/1999/xlink" xmlns="http://www.w3.org/2000/svg">
  <desc>Created with Lunacy</desc>
  <defs>
    <rect width="163" height="48" id="artboard_1" />
    <clipPath id="clip_1">
      <use xlink:href="#artboard_1" clip-rule="evenodd" />
    </clipPath>
  </defs>
  <g id="buttons/medium/white" clip-path="url(#clip_1)">
    <use xlink:href="#artboard_1" stroke="none" fill="#FFFFFF" />
    <path d="M24 0L139 0Q139.615 0 140.225 0.027978Q140.836 0.055956 141.441 0.111855Q142.046 0.167754 142.645 0.25146Q143.244 0.335166 143.835 0.446507Q144.425 0.557849 145.007 0.6966Q145.589 0.835351 146.16 1.00123Q146.732 1.1671 147.292 1.35977Q147.852 1.55243 148.4 1.77149Q148.948 1.99055 149.482 2.23556Q150.016 2.48056 150.535 2.75102Q151.054 3.02147 151.558 3.31682Q152.061 3.61217 152.548 3.93182Q153.034 4.25146 153.503 4.59475Q153.972 4.93803 154.422 5.30426Q154.872 5.67048 155.303 6.0589Q155.733 6.44732 156.143 6.85714Q156.553 7.26697 156.941 7.69735Q157.33 8.12774 157.696 8.57781Q158.062 9.02789 158.405 9.49673Q158.749 9.96558 159.068 10.4522Q159.388 10.9389 159.683 11.4424Q159.979 11.9458 160.249 12.4651Q160.519 12.9844 160.764 13.5184Q161.009 14.0524 161.229 14.6Q161.448 15.1477 161.64 15.7079Q161.833 16.268 161.999 16.8396Q162.165 17.4111 162.303 17.9929Q162.442 18.5747 162.553 19.1655Q162.665 19.7563 162.749 20.3549Q162.832 20.9536 162.888 21.5588Q162.944 22.1641 162.972 22.7747Q163 23.3853 163 24L163 24Q163 24.6147 162.972 25.2253Q162.944 25.836 162.888 26.4412Q162.832 27.0464 162.749 27.6451Q162.665 28.2437 162.553 28.8345Q162.442 29.4253 162.303 30.0071Q162.165 30.5889 161.999 31.1604Q161.833 31.732 161.64 32.2922Q161.448 32.8523 161.229 33.4Q161.009 33.9476 160.764 34.4816Q160.519 35.0156 160.249 35.5349Q159.979 36.0542 159.683 36.5576Q159.388 37.0611 159.068 37.5478Q158.749 38.0344 158.405 38.5033Q158.062 38.9721 157.696 39.4222Q157.33 39.8723 156.941 40.3027Q156.553 40.733 156.143 41.1429Q155.733 41.5527 155.303 41.9411Q154.872 42.3295 154.422 42.6958Q153.972 43.062 153.503 43.4053Q153.034 43.7486 152.548 44.0682Q152.061 44.3878 151.558 44.6832Q151.054 44.9785 150.535 45.249Q150.016 45.5194 149.482 45.7645Q148.948 46.0095 148.4 46.2285Q147.852 46.4476 147.292 46.6402Q146.732 46.8329 146.16 46.9988Q145.589 47.1647 145.007 47.3034Q144.425 47.4422 143.835 47.5535Q143.244 47.6648 142.645 47.7485Q142.046 47.8323 141.441 47.8881Q140.836 47.944 140.225 47.972Q139.615 48 139 48L24 48Q23.3853 48 22.7747 47.972Q22.1641 47.944 21.5588 47.8881Q20.9536 47.8323 20.3549 47.7485Q19.7563 47.6648 19.1655 47.5535Q18.5747 47.4422 17.9929 47.3034Q17.4111 47.1647 16.8396 46.9988Q16.268 46.8329 15.7079 46.6402Q15.1477 46.4476 14.6 46.2285Q14.0524 46.0095 13.5184 45.7644Q12.9844 45.5194 12.4651 45.249Q11.9458 44.9785 11.4424 44.6832Q10.9389 44.3878 10.4522 44.0682Q9.96558 43.7486 9.49673 43.4053Q9.02789 43.062 8.57781 42.6957Q8.12774 42.3295 7.69735 41.9411Q7.26697 41.5527 6.85714 41.1429Q6.44732 40.733 6.0589 40.3027Q5.67048 39.8723 5.30426 39.4222Q4.93803 38.9721 4.59475 38.5033Q4.25146 38.0344 3.93182 37.5478Q3.61217 37.0611 3.31682 36.5576Q3.02147 36.0542 2.75102 35.5349Q2.48056 35.0156 2.23556 34.4816Q1.99055 33.9476 1.77149 33.4Q1.55243 32.8523 1.35977 32.2922Q1.1671 31.732 1.00123 31.1604Q0.835351 30.5889 0.6966 30.0071Q0.557849 29.4253 0.446507 28.8345Q0.335166 28.2437 0.25146 27.6451Q0.167754 27.0464 0.111855 26.4412Q0.055956 25.836 0.027978 25.2253Q0 24.6147 0 24L0 24Q0 23.3853 0.027978 22.7747Q0.055956 22.1641 0.111855 21.5588Q0.167754 20.9536 0.25146 20.3549Q0.335166 19.7563 0.446507 19.1655Q0.557849 18.5747 0.6966 17.9929Q0.835351 17.4111 1.00123 16.8396Q1.1671 16.268 1.35977 15.7079Q1.55243 15.1477 1.77149 14.6Q1.99055 14.0524 2.23556 13.5184Q2.48056 12.9844 2.75102 12.4651Q3.02147 11.9458 3.31682 11.4424Q3.61217 10.9389 3.93182 10.4522Q4.25146 9.96558 4.59475 9.49673Q4.93803 9.02789 5.30426 8.57781Q5.67048 8.12774 6.0589 7.69735Q6.44732 7.26697 6.85714 6.85714Q7.26697 6.44732 7.69735 6.0589Q8.12774 5.67048 8.57781 5.30426Q9.02789 4.93803 9.49673 4.59475Q9.96558 4.25146 10.4522 3.93182Q10.9389 3.61217 11.4424 3.31682Q11.9458 3.02147 12.4651 2.75102Q12.9844 2.48056 13.5184 2.23556Q14.0524 1.99055 14.6 1.77149Q15.1477 1.55243 15.7079 1.35977Q16.268 1.1671 16.8396 1.00123Q17.4111 0.835351 17.9929 0.6966Q18.5747 0.557849 19.1655 0.446507Q19.7563 0.335166 20.3549 0.25146Q20.9536 0.167754 21.5588 0.111855Q22.1641 0.055956 22.7747 0.027978Q23.3853 0 24 0Z" id="bg" fill="#FFFFFF" stroke="none" />
    <g id="Check-Twice" fill="#F62F5E" transform="translate(0 14)">
      <path d="M111.748 7.392Q112.18 7.792 112.868 7.792Q113.556 7.792 113.988 7.384Q114.42 6.976 114.42 6.352Q114.42 5.776 113.988 5.392Q113.556 5.008 112.868 5.008Q112.18 5.008 111.748 5.408Q111.316 5.808 111.316 6.4Q111.316 6.992 111.748 7.392ZM48.86 9.824Q47.876 8.864 46.276 8.864Q45.444 8.864 44.74 9.128Q44.036 9.392 43.54 9.888L43.54 5.728L41.044 5.728L41.044 17.6L43.54 17.6L43.54 13.344Q43.54 12.192 44.1 11.608Q44.66 11.024 45.604 11.024Q46.452 11.024 46.9 11.528Q47.348 12.032 47.348 13.056L47.348 17.6L49.844 17.6L49.844 12.672Q49.844 10.784 48.86 9.824ZM75.348 14.224L74.148 15.408L74.148 17.6L71.652 17.6L71.652 5.728L74.148 5.728L74.148 12.448L77.796 8.992L80.772 8.992L77.188 12.64L81.092 17.6L78.068 17.6L75.348 14.224ZM31.756 17.048Q33.14 17.792 34.852 17.792Q36.308 17.792 37.492 17.28Q38.676 16.768 39.476 15.792L37.812 14.256Q36.676 15.584 34.996 15.584Q33.956 15.584 33.14 15.128Q32.324 14.672 31.868 13.856Q31.412 13.04 31.412 12Q31.412 10.96 31.868 10.144Q32.324 9.328 33.14 8.872Q33.956 8.416 34.996 8.416Q36.676 8.416 37.812 9.728L39.476 8.192Q38.676 7.232 37.5 6.72Q36.324 6.208 34.868 6.208Q33.14 6.208 31.756 6.952Q30.372 7.696 29.58 9.016Q28.788 10.336 28.788 12Q28.788 13.664 29.58 14.984Q30.372 16.304 31.756 17.048ZM85.652 8.512L89.236 8.512L89.236 17.6L91.828 17.6L91.828 8.512L95.412 8.512L95.412 6.4L85.652 6.4L85.652 8.512ZM60.532 13.328Q60.532 13.376 60.484 14L53.972 14Q54.148 14.8 54.804 15.264Q55.46 15.728 56.436 15.728Q57.108 15.728 57.628 15.528Q58.148 15.328 58.596 14.896L59.924 16.336Q58.708 17.728 56.372 17.728Q54.916 17.728 53.796 17.16Q52.676 16.592 52.068 15.584Q51.46 14.576 51.46 13.296Q51.46 12.032 52.06 11.016Q52.66 10 53.708 9.432Q54.756 8.864 56.052 8.864Q57.316 8.864 58.34 9.408Q59.364 9.952 59.948 10.968Q60.532 11.984 60.532 13.328ZM63.884 17.16Q64.98 17.728 66.356 17.728Q67.716 17.728 68.732 17.152Q69.748 16.576 70.212 15.552L68.276 14.496Q67.62 15.68 66.34 15.68Q65.364 15.68 64.724 15.04Q64.084 14.4 64.084 13.296Q64.084 12.192 64.724 11.552Q65.364 10.912 66.34 10.912Q67.604 10.912 68.276 12.096L70.212 11.056Q69.748 10 68.732 9.432Q67.716 8.864 66.356 8.864Q64.98 8.864 63.884 9.432Q62.788 10 62.172 11.008Q61.556 12.016 61.556 13.296Q61.556 14.576 62.172 15.584Q62.788 16.592 63.884 17.16ZM120.596 17.728Q119.22 17.728 118.124 17.16Q117.028 16.592 116.412 15.584Q115.796 14.576 115.796 13.296Q115.796 12.016 116.412 11.008Q117.028 10 118.124 9.432Q119.22 8.864 120.596 8.864Q121.956 8.864 122.972 9.432Q123.988 10 124.452 11.056L122.516 12.096Q121.844 10.912 120.58 10.912Q119.604 10.912 118.964 11.552Q118.324 12.192 118.324 13.296Q118.324 14.4 118.964 15.04Q119.604 15.68 120.58 15.68Q121.86 15.68 122.516 14.496L124.452 15.552Q123.988 16.576 122.972 17.152Q121.956 17.728 120.596 17.728ZM134.276 14Q134.324 13.376 134.324 13.328Q134.324 11.984 133.74 10.968Q133.156 9.952 132.132 9.408Q131.108 8.864 129.844 8.864Q128.548 8.864 127.5 9.432Q126.452 10 125.852 11.016Q125.252 12.032 125.252 13.296Q125.252 14.576 125.86 15.584Q126.468 16.592 127.588 17.16Q128.708 17.728 130.164 17.728Q132.5 17.728 133.716 16.336L132.388 14.896Q131.94 15.328 131.42 15.528Q130.9 15.728 130.228 15.728Q129.252 15.728 128.596 15.264Q127.94 14.8 127.764 14L134.276 14ZM107.332 17.6L104.932 17.6L102.996 12.256L100.996 17.6L98.596 17.6L95.492 8.992L97.844 8.992L99.876 14.816L101.988 8.992L104.1 8.992L106.148 14.816L108.244 8.992L110.452 8.992L107.332 17.6ZM114.116 8.992L111.62 8.992L111.62 17.6L114.116 17.6L114.116 8.992ZM56.068 10.752Q55.22 10.752 54.644 11.232Q54.068 11.712 53.94 12.544L58.18 12.544Q58.052 11.728 57.476 11.24Q56.9 10.752 56.068 10.752ZM128.436 11.232Q129.012 10.752 129.86 10.752Q130.692 10.752 131.268 11.24Q131.844 11.728 131.972 12.544L127.732 12.544Q127.86 11.712 128.436 11.232Z" />
    </g>
  </g>
</svg>