<?xml version="1.0" encoding="utf-8"?>
<svg width="91px" height="35px" viewBox="0 0 91 35" version="1.1" xmlns:xlink="http://www.w3.org/1999/xlink" xmlns="http://www.w3.org/2000/svg">
  <desc>Created with Lunacy</desc>
  <defs>
    <rect width="91" height="35" id="artboard_1" />
    <clipPath id="clip_1">
      <use xlink:href="#artboard_1" clip-rule="evenodd" />
    </clipPath>
  </defs>
  <g id="buttons/small/red" clip-path="url(#clip_1)">
    <use xlink:href="#artboard_1" stroke="none" fill="#FFFFFF" />
    <path d="M18 0L73 0Q73.4611 0 73.919 0.0209835Q74.377 0.041967 74.8309 0.0838912Q75.2848 0.125815 75.7338 0.188595Q76.1828 0.251374 76.6259 0.334881Q77.069 0.418387 77.5053 0.52245Q77.9417 0.626513 78.3703 0.750921Q78.799 0.875329 79.2191 1.01983Q79.6393 1.16433 80.05 1.32862Q80.4607 1.49291 80.8612 1.67667Q81.2617 1.86042 81.6512 2.06326Q82.0406 2.2661 82.4182 2.48762Q82.7958 2.70913 83.1608 2.94886Q83.5258 3.1886 83.8775 3.44606Q84.2291 3.70352 84.5667 3.97819Q84.9042 4.25286 85.227 4.54418Q85.5498 4.83549 85.8571 5.14286Q86.1645 5.45022 86.4558 5.77301Q86.7471 6.09581 87.0218 6.43336Q87.2965 6.77092 87.554 7.12255Q87.8114 7.47418 88.0511 7.83917Q88.2909 8.20417 88.5124 8.58177Q88.7339 8.95938 88.9368 9.34883Q89.1396 9.73829 89.3233 10.1388Q89.5071 10.5393 89.6714 10.95Q89.8357 11.3608 89.9802 11.7809Q90.1247 12.201 90.2491 12.6297Q90.3735 13.0584 90.4776 13.4947Q90.5816 13.931 90.6651 14.3741Q90.7486 14.8172 90.8114 15.2662Q90.8742 15.7152 90.9161 16.1691Q90.958 16.623 90.979 17.081Q91 17.539 91 18L91 17Q91 17.4611 90.979 17.919Q90.958 18.377 90.9161 18.8309Q90.8742 19.2848 90.8114 19.7338Q90.7486 20.1828 90.6651 20.6259Q90.5816 21.069 90.4776 21.5053Q90.3735 21.9416 90.2491 22.3703Q90.1247 22.799 89.9802 23.2191Q89.8357 23.6392 89.6714 24.05Q89.5071 24.4607 89.3233 24.8612Q89.1396 25.2617 88.9368 25.6512Q88.7339 26.0406 88.5124 26.4182Q88.2909 26.7958 88.0511 27.1608Q87.8114 27.5258 87.554 27.8775Q87.2965 28.2291 87.0218 28.5666Q86.7471 28.9042 86.4558 29.227Q86.1645 29.5498 85.8571 29.8571Q85.5498 30.1645 85.227 30.4558Q84.9042 30.7471 84.5667 31.0218Q84.2291 31.2965 83.8775 31.5539Q83.5258 31.8114 83.1608 32.0511Q82.7958 32.2909 82.4182 32.5124Q82.0406 32.7339 81.6512 32.9367Q81.2617 33.1396 80.8612 33.3233Q80.4607 33.5071 80.05 33.6714Q79.6393 33.8357 79.2191 33.9802Q78.799 34.1247 78.3703 34.2491Q77.9417 34.3735 77.5053 34.4776Q77.069 34.5816 76.6259 34.6651Q76.1828 34.7486 75.7338 34.8114Q75.2848 34.8742 74.8309 34.9161Q74.377 34.958 73.919 34.979Q73.4611 35 73 35L18 35Q17.539 35 17.081 34.979Q16.623 34.958 16.1691 34.9161Q15.7152 34.8742 15.2662 34.8114Q14.8172 34.7486 14.3741 34.6651Q13.931 34.5816 13.4947 34.4776Q13.0584 34.3735 12.6297 34.2491Q12.201 34.1247 11.7809 33.9802Q11.3608 33.8357 10.95 33.6714Q10.5393 33.5071 10.1388 33.3233Q9.73829 33.1396 9.34883 32.9367Q8.95938 32.7339 8.58178 32.5124Q8.20417 32.2909 7.83917 32.0511Q7.47418 31.8114 7.12255 31.5539Q6.77092 31.2965 6.43336 31.0218Q6.0958 30.7471 5.77301 30.4558Q5.45022 30.1645 5.14286 29.8571Q4.83549 29.5498 4.54418 29.227Q4.25286 28.9042 3.97819 28.5666Q3.70352 28.2291 3.44606 27.8775Q3.1886 27.5258 2.94886 27.1608Q2.70913 26.7958 2.48762 26.4182Q2.2661 26.0406 2.06326 25.6512Q1.86042 25.2617 1.67667 24.8612Q1.49291 24.4607 1.32862 24.05Q1.16433 23.6392 1.01983 23.2191Q0.875329 22.799 0.750921 22.3703Q0.626513 21.9416 0.52245 21.5053Q0.418387 21.069 0.334881 20.6259Q0.251374 20.1828 0.188595 19.7338Q0.125815 19.2848 0.0838912 18.8309Q0.041967 18.377 0.0209835 17.919Q0 17.4611 0 17L0 18Q0 17.539 0.0209835 17.081Q0.041967 16.623 0.0838912 16.1691Q0.125815 15.7152 0.188595 15.2662Q0.251374 14.8172 0.334881 14.3741Q0.418387 13.931 0.52245 13.4947Q0.626513 13.0584 0.750921 12.6297Q0.875329 12.201 1.01983 11.7809Q1.16433 11.3608 1.32862 10.95Q1.49291 10.5393 1.67667 10.1388Q1.86042 9.73829 2.06326 9.34883Q2.2661 8.95938 2.48762 8.58178Q2.70913 8.20417 2.94886 7.83917Q3.1886 7.47418 3.44606 7.12255Q3.70352 6.77092 3.97819 6.43336Q4.25286 6.0958 4.54418 5.77301Q4.83549 5.45022 5.14286 5.14286Q5.45022 4.83549 5.77301 4.54418Q6.09581 4.25286 6.43336 3.97819Q6.77092 3.70352 7.12255 3.44606Q7.47418 3.1886 7.83917 2.94886Q8.20417 2.70913 8.58177 2.48762Q8.95938 2.2661 9.34883 2.06326Q9.73829 1.86042 10.1388 1.67667Q10.5393 1.49291 10.95 1.32862Q11.3608 1.16433 11.7809 1.01983Q12.201 0.875329 12.6297 0.750921Q13.0584 0.626513 13.4947 0.52245Q13.931 0.418387 14.3741 0.334881Q14.8172 0.251374 15.2662 0.188595Q15.7152 0.125815 16.1691 0.0838912Q16.623 0.041967 17.081 0.0209835Q17.539 0 18 0Z" id="bg" fill="#F62F5E" stroke="none" />
    <g id="Publish" fill="#FFFFFF" transform="translate(0 10)">
      <path d="M51.782 8.544Q52.106 8.844 52.622 8.844Q53.138 8.844 53.462 8.538Q53.786 8.232 53.786 7.764Q53.786 7.332 53.462 7.044Q53.138 6.756 52.622 6.756Q52.106 6.756 51.782 7.056Q51.458 7.356 51.458 7.8Q51.458 8.244 51.782 8.544ZM45.248 10.062Q44.51 9.648 43.61 9.648Q42.374 9.648 41.666 10.428L41.666 7.296L39.794 7.296L39.794 16.2L41.582 16.2L41.582 15.456Q42.278 16.296 43.61 16.296Q44.51 16.296 45.248 15.882Q45.986 15.468 46.406 14.718Q46.826 13.968 46.826 12.972Q46.826 11.976 46.406 11.226Q45.986 10.476 45.248 10.062ZM48.074 7.296L49.946 7.296L49.946 16.2L48.074 16.2L48.074 7.296ZM67.532 10.368Q66.794 9.648 65.594 9.648Q64.97 9.648 64.442 9.846Q63.914 10.044 63.542 10.416L63.542 7.296L61.67 7.296L61.67 16.2L63.542 16.2L63.542 13.008Q63.542 12.144 63.962 11.706Q64.382 11.268 65.09 11.268Q65.726 11.268 66.062 11.646Q66.398 12.024 66.398 12.792L66.398 16.2L68.27 16.2L68.27 12.504Q68.27 11.088 67.532 10.368ZM26.534 7.8Q27.65 7.8 28.472 8.172Q29.294 8.544 29.738 9.228Q30.182 9.912 30.182 10.848Q30.182 11.772 29.738 12.462Q29.294 13.152 28.472 13.518Q27.65 13.884 26.534 13.884L24.842 13.884L24.842 16.2L22.898 16.2L22.898 7.8L26.534 7.8ZM26.426 12.3Q27.302 12.3 27.758 11.922Q28.214 11.544 28.214 10.848Q28.214 10.14 27.758 9.762Q27.302 9.384 26.426 9.384L24.842 9.384L24.842 12.3L26.426 12.3ZM57.47 16.296Q56.666 16.296 55.898 16.098Q55.13 15.9 54.674 15.6L55.298 14.256Q55.73 14.532 56.342 14.706Q56.954 14.88 57.542 14.88Q58.73 14.88 58.73 14.292Q58.73 14.016 58.406 13.896Q58.082 13.776 57.41 13.692Q56.618 13.572 56.102 13.416Q55.586 13.26 55.208 12.864Q54.83 12.468 54.83 11.736Q54.83 11.124 55.184 10.65Q55.538 10.176 56.216 9.912Q56.894 9.648 57.818 9.648Q58.502 9.648 59.18 9.798Q59.858 9.948 60.302 10.212L59.678 11.544Q58.826 11.064 57.818 11.064Q57.218 11.064 56.918 11.232Q56.618 11.4 56.618 11.664Q56.618 11.964 56.942 12.084Q57.266 12.204 57.974 12.312Q58.766 12.444 59.27 12.594Q59.774 12.744 60.146 13.14Q60.518 13.536 60.518 14.244Q60.518 14.844 60.158 15.312Q59.798 15.78 59.108 16.038Q58.418 16.296 57.47 16.296ZM38.054 9.744L38.054 16.2L36.278 16.2L36.278 15.432Q35.906 15.852 35.39 16.074Q34.874 16.296 34.274 16.296Q33.002 16.296 32.258 15.564Q31.514 14.832 31.514 13.392L31.514 9.744L33.386 9.744L33.386 13.116Q33.386 14.676 34.694 14.676Q35.366 14.676 35.774 14.238Q36.182 13.8 36.182 12.936L36.182 9.744L38.054 9.744ZM44.468 14.274Q44.006 14.76 43.286 14.76Q42.566 14.76 42.104 14.274Q41.642 13.788 41.642 12.972Q41.642 12.156 42.104 11.67Q42.566 11.184 43.286 11.184Q44.006 11.184 44.468 11.67Q44.93 12.156 44.93 12.972Q44.93 13.788 44.468 14.274ZM53.558 9.744L51.686 9.744L51.686 16.2L53.558 16.2L53.558 9.744Z" />
    </g>
  </g>
</svg>