<?xml version="1.0" encoding="utf-8"?>
<svg width="221px" height="60px" viewBox="0 0 221 60" version="1.1" xmlns:xlink="http://www.w3.org/1999/xlink" xmlns="http://www.w3.org/2000/svg">
  <desc>Created with Lunacy</desc>
  <defs>
    <rect width="221" height="60" id="artboard_1" />
    <clipPath id="clip_1">
      <use xlink:href="#artboard_1" clip-rule="evenodd" />
    </clipPath>
  </defs>
  <g id="buttons/big/white" clip-path="url(#clip_1)">
    <use xlink:href="#artboard_1" stroke="none" fill="#FFFFFF" />
    <path d="M30 0L191 0Q191.768 0 192.532 0.0349725Q193.295 0.069945 194.051 0.139819Q194.808 0.209692 195.556 0.314325Q196.305 0.418957 197.043 0.558134Q197.782 0.697312 198.509 0.87075Q199.236 1.04419 199.951 1.25154Q200.665 1.45888 201.365 1.69971Q202.065 1.94054 202.75 2.21437Q203.435 2.48819 204.102 2.79445Q204.77 3.10071 205.419 3.43877Q206.068 3.77684 206.697 4.14603Q207.326 4.51522 207.935 4.91477Q208.543 5.31433 209.129 5.74343Q209.715 6.17254 210.278 6.63032Q210.84 7.0881 211.378 7.57363Q211.916 8.05915 212.429 8.57143Q212.941 9.08371 213.426 9.62169Q213.912 10.1597 214.37 10.7223Q214.827 11.2849 215.257 11.8709Q215.686 12.457 216.085 13.0653Q216.485 13.6736 216.854 14.303Q217.223 14.9323 217.561 15.5814Q217.899 16.2305 218.206 16.898Q218.512 17.5655 218.786 18.25Q219.059 18.9346 219.3 19.6348Q219.541 20.335 219.749 21.0495Q219.956 21.7639 220.129 22.4912Q220.303 23.2184 220.442 23.9569Q220.581 24.6954 220.686 25.4437Q220.79 26.192 220.86 26.9485Q220.93 27.7051 220.965 28.4683Q221 29.2316 221 30L221 30Q221 30.7684 220.965 31.5317Q220.93 32.2949 220.86 33.0515Q220.79 33.808 220.686 34.5563Q220.581 35.3046 220.442 36.0431Q220.303 36.7816 220.129 37.5089Q219.956 38.2361 219.748 38.9505Q219.541 39.665 219.3 40.3652Q219.059 41.0654 218.786 41.75Q218.512 42.4345 218.206 43.102Q217.899 43.7695 217.561 44.4186Q217.223 45.0677 216.854 45.6971Q216.485 46.3264 216.085 46.9347Q215.686 47.543 215.257 48.1291Q214.827 48.7151 214.37 49.2777Q213.912 49.8403 213.426 50.3783Q212.941 50.9163 212.429 51.4286Q211.916 51.9409 211.378 52.4264Q210.84 52.9119 210.278 53.3697Q209.715 53.8275 209.129 54.2566Q208.543 54.6857 207.935 55.0852Q207.326 55.4848 206.697 55.854Q206.068 56.2232 205.419 56.5612Q204.77 56.8993 204.102 57.2056Q203.435 57.5118 202.75 57.7856Q202.065 58.0595 201.365 58.3003Q200.665 58.5411 199.951 58.7485Q199.236 58.9558 198.509 59.1293Q197.782 59.3027 197.043 59.4419Q196.305 59.581 195.556 59.6857Q194.808 59.7903 194.051 59.8602Q193.295 59.9301 192.532 59.965Q191.768 60 191 60L30 60Q29.2316 60 28.4683 59.965Q27.7051 59.9301 26.9485 59.8602Q26.192 59.7903 25.4437 59.6857Q24.6954 59.5811 23.9569 59.4419Q23.2184 59.3027 22.4912 59.1293Q21.7639 58.9558 21.0495 58.7485Q20.335 58.5411 19.6348 58.3003Q18.9346 58.0595 18.25 57.7856Q17.5655 57.5118 16.898 57.2056Q16.2305 56.8993 15.5814 56.5612Q14.9323 56.2232 14.303 55.854Q13.6736 55.4848 13.0653 55.0852Q12.457 54.6857 11.8709 54.2566Q11.2849 53.8275 10.7223 53.3697Q10.1597 52.9119 9.62169 52.4264Q9.08371 51.9409 8.57143 51.4286Q8.05915 50.9163 7.57363 50.3783Q7.0881 49.8403 6.63032 49.2777Q6.17254 48.7151 5.74343 48.1291Q5.31433 47.543 4.91477 46.9347Q4.51522 46.3264 4.14603 45.697Q3.77684 45.0677 3.43877 44.4186Q3.10071 43.7695 2.79445 43.102Q2.48819 42.4345 2.21437 41.75Q1.94054 41.0654 1.69971 40.3652Q1.45888 39.665 1.25154 38.9505Q1.04419 38.2361 0.87075 37.5089Q0.697312 36.7816 0.558134 36.0431Q0.418957 35.3046 0.314325 34.5563Q0.209692 33.808 0.139819 33.0515Q0.069945 32.2949 0.0349725 31.5317Q0 30.7684 0 30L0 30Q0 29.2316 0.0349725 28.4683Q0.069945 27.7051 0.139819 26.9485Q0.209692 26.192 0.314325 25.4437Q0.418957 24.6954 0.558134 23.9569Q0.697312 23.2184 0.87075 22.4912Q1.04419 21.7639 1.25154 21.0495Q1.45888 20.335 1.69971 19.6348Q1.94054 18.9346 2.21437 18.25Q2.48819 17.5655 2.79445 16.898Q3.10071 16.2305 3.43877 15.5814Q3.77684 14.9323 4.14603 14.303Q4.51522 13.6736 4.91477 13.0653Q5.31433 12.457 5.74343 11.8709Q6.17254 11.2849 6.63032 10.7223Q7.0881 10.1597 7.57363 9.62169Q8.05915 9.08371 8.57143 8.57143Q9.08371 8.05915 9.62169 7.57363Q10.1597 7.0881 10.7223 6.63032Q11.2849 6.17254 11.8709 5.74343Q12.457 5.31433 13.0653 4.91477Q13.6736 4.51522 14.303 4.14603Q14.9323 3.77684 15.5814 3.43877Q16.2305 3.10071 16.898 2.79445Q17.5655 2.48819 18.25 2.21437Q18.9346 1.94054 19.6348 1.69971Q20.335 1.45888 21.0495 1.25154Q21.7639 1.04419 22.4912 0.87075Q23.2184 0.697312 23.9569 0.558134Q24.6954 0.418957 25.4437 0.314325Q26.192 0.209692 26.9485 0.139819Q27.7051 0.069945 28.4683 0.0349725Q29.2316 0 30 0Z" id="bg" fill="#FFFFFF" stroke="none" />
    <g id="Back-to-shop" fill="#F62F5E" transform="translate(0 21)">
      <path d="M90.868 15.408L92.068 14.224L94.788 17.6L97.812 17.6L93.908 12.64L97.492 8.992L94.516 8.992L90.868 12.448L90.868 5.728L88.372 5.728L88.372 17.6L90.868 17.6L90.868 15.408ZM141.74 9.824Q140.756 8.864 139.156 8.864Q138.324 8.864 137.62 9.128Q136.916 9.392 136.42 9.888L136.42 5.728L133.924 5.728L133.924 17.6L136.42 17.6L136.42 13.344Q136.42 12.192 136.98 11.608Q137.54 11.024 138.484 11.024Q139.332 11.024 139.78 11.528Q140.228 12.032 140.228 13.056L140.228 17.6L142.724 17.6L142.724 12.672Q142.724 10.784 141.74 9.824ZM66.708 12.792Q66.164 12.08 65.204 11.776Q65.908 11.408 66.3 10.768Q66.692 10.128 66.692 9.312Q66.692 7.968 65.596 7.184Q64.5 6.4 62.452 6.4L56.98 6.4L56.98 17.6L62.772 17.6Q64.964 17.6 66.108 16.808Q67.252 16.016 67.252 14.544Q67.252 13.504 66.708 12.792ZM109.012 17.184Q108.644 17.456 108.108 17.592Q107.572 17.728 106.98 17.728Q105.444 17.728 104.604 16.944Q103.764 16.16 103.764 14.64L103.764 11.104L102.436 11.104L102.436 9.184L103.764 9.184L103.764 7.088L106.26 7.088L106.26 9.184L108.404 9.184L108.404 11.104L106.26 11.104L106.26 14.608Q106.26 15.152 106.54 15.448Q106.82 15.744 107.332 15.744Q107.924 15.744 108.34 15.424L109.012 17.184ZM59.556 10.992L59.556 8.352L62.132 8.352Q63.092 8.352 63.588 8.68Q64.084 9.008 64.084 9.664Q64.084 10.32 63.588 10.656Q63.092 10.992 62.132 10.992L59.556 10.992ZM75.588 9.816Q74.516 8.864 72.516 8.864Q71.476 8.864 70.492 9.136Q69.508 9.408 68.804 9.904L69.7 11.648Q70.164 11.28 70.828 11.064Q71.492 10.848 72.18 10.848Q73.172 10.848 73.668 11.288Q74.164 11.728 74.164 12.544L72.18 12.544Q70.292 12.544 69.388 13.232Q68.484 13.92 68.484 15.12Q68.484 15.872 68.868 16.464Q69.252 17.056 69.98 17.392Q70.708 17.728 71.7 17.728Q73.62 17.728 74.324 16.528L74.324 17.6L76.66 17.6L76.66 12.688Q76.66 10.768 75.588 9.816ZM83.076 17.728Q81.7 17.728 80.604 17.16Q79.508 16.592 78.892 15.584Q78.276 14.576 78.276 13.296Q78.276 12.016 78.892 11.008Q79.508 10 80.604 9.432Q81.7 8.864 83.076 8.864Q84.436 8.864 85.452 9.432Q86.468 10 86.932 11.056L84.996 12.096Q84.324 10.912 83.06 10.912Q82.084 10.912 81.444 11.552Q80.804 12.192 80.804 13.296Q80.804 14.4 81.444 15.04Q82.084 15.68 83.06 15.68Q84.34 15.68 84.996 14.496L86.932 15.552Q86.468 16.576 85.452 17.152Q84.436 17.728 83.076 17.728ZM112.076 17.16Q113.156 17.728 114.516 17.728Q115.876 17.728 116.948 17.16Q118.02 16.592 118.628 15.584Q119.236 14.576 119.236 13.296Q119.236 12.016 118.628 11.008Q118.02 10 116.948 9.432Q115.876 8.864 114.516 8.864Q113.156 8.864 112.076 9.432Q110.996 10 110.388 11.008Q109.78 12.016 109.78 13.296Q109.78 14.576 110.388 15.584Q110.996 16.592 112.076 17.16ZM128.324 17.728Q127.252 17.728 126.228 17.464Q125.204 17.2 124.596 16.8L125.428 15.008Q126.004 15.376 126.82 15.608Q127.636 15.84 128.42 15.84Q130.004 15.84 130.004 15.056Q130.004 14.688 129.572 14.528Q129.14 14.368 128.244 14.256Q127.188 14.096 126.5 13.888Q125.812 13.68 125.308 13.152Q124.804 12.624 124.804 11.648Q124.804 10.832 125.276 10.2Q125.748 9.568 126.652 9.216Q127.556 8.864 128.788 8.864Q129.7 8.864 130.604 9.064Q131.508 9.264 132.1 9.616L131.268 11.392Q130.132 10.752 128.788 10.752Q127.988 10.752 127.588 10.976Q127.188 11.2 127.188 11.552Q127.188 11.952 127.62 12.112Q128.052 12.272 128.996 12.416Q130.052 12.592 130.724 12.792Q131.396 12.992 131.892 13.52Q132.388 14.048 132.388 14.992Q132.388 15.792 131.908 16.416Q131.428 17.04 130.508 17.384Q129.588 17.728 128.324 17.728ZM149.076 17.728Q147.716 17.728 146.636 17.16Q145.556 16.592 144.948 15.584Q144.34 14.576 144.34 13.296Q144.34 12.016 144.948 11.008Q145.556 10 146.636 9.432Q147.716 8.864 149.076 8.864Q150.436 8.864 151.508 9.432Q152.58 10 153.188 11.008Q153.796 12.016 153.796 13.296Q153.796 14.576 153.188 15.584Q152.58 16.592 151.508 17.16Q150.436 17.728 149.076 17.728ZM162.732 9.416Q161.748 8.864 160.548 8.864Q158.772 8.864 157.844 9.984L157.844 8.992L155.46 8.992L155.46 20.704L157.956 20.704L157.956 16.688Q158.9 17.728 160.548 17.728Q161.748 17.728 162.732 17.176Q163.716 16.624 164.276 15.624Q164.836 14.624 164.836 13.296Q164.836 11.968 164.276 10.968Q163.716 9.968 162.732 9.416ZM116.092 15.032Q115.476 15.68 114.516 15.68Q113.556 15.68 112.932 15.032Q112.308 14.384 112.308 13.296Q112.308 12.208 112.932 11.56Q113.556 10.912 114.516 10.912Q115.476 10.912 116.092 11.56Q116.708 12.208 116.708 13.296Q116.708 14.384 116.092 15.032ZM149.076 15.68Q150.036 15.68 150.652 15.032Q151.268 14.384 151.268 13.296Q151.268 12.208 150.652 11.56Q150.036 10.912 149.076 10.912Q148.116 10.912 147.492 11.56Q146.868 12.208 146.868 13.296Q146.868 14.384 147.492 15.032Q148.116 15.68 149.076 15.68ZM161.692 15.032Q161.076 15.68 160.116 15.68Q159.156 15.68 158.54 15.032Q157.924 14.384 157.924 13.296Q157.924 12.208 158.54 11.56Q159.156 10.912 160.116 10.912Q161.076 10.912 161.692 11.56Q162.308 12.208 162.308 13.296Q162.308 14.384 161.692 15.032ZM64.124 15.312Q63.604 15.648 62.58 15.648L59.556 15.648L59.556 12.88L62.58 12.88Q64.644 12.88 64.644 14.272Q64.644 14.976 64.124 15.312ZM73.46 15.752Q72.964 16.048 72.324 16.048Q71.668 16.048 71.292 15.768Q70.916 15.488 70.916 15.008Q70.916 14 72.452 14L74.164 14L74.164 14.88Q73.956 15.456 73.46 15.752Z" />
    </g>
  </g>
</svg>