<?xml version="1.0" encoding="utf-8"?>
<svg width="91px" height="35px" viewBox="0 0 91 35" version="1.1" xmlns:xlink="http://www.w3.org/1999/xlink" xmlns="http://www.w3.org/2000/svg">
  <desc>Created with Lunacy</desc>
  <defs>
    <rect width="91" height="35" id="artboard_1" />
    <clipPath id="clip_1">
      <use xlink:href="#artboard_1" clip-rule="evenodd" />
    </clipPath>
  </defs>
  <g id="buttons/small/white" clip-path="url(#clip_1)">
    <use xlink:href="#artboard_1" stroke="none" fill="#FFFFFF" />
    <path d="M18 0L73 0Q73.4611 0 73.919 0.0209835Q74.377 0.041967 74.8309 0.0838912Q75.2848 0.125815 75.7338 0.188595Q76.1828 0.251374 76.6259 0.334881Q77.069 0.418387 77.5053 0.52245Q77.9417 0.626513 78.3703 0.750921Q78.799 0.875329 79.2191 1.01983Q79.6393 1.16433 80.05 1.32862Q80.4607 1.49291 80.8612 1.67667Q81.2617 1.86042 81.6512 2.06326Q82.0406 2.2661 82.4182 2.48762Q82.7958 2.70913 83.1608 2.94886Q83.5258 3.1886 83.8775 3.44606Q84.2291 3.70352 84.5667 3.97819Q84.9042 4.25286 85.227 4.54418Q85.5498 4.83549 85.8571 5.14286Q86.1645 5.45022 86.4558 5.77301Q86.7471 6.09581 87.0218 6.43336Q87.2965 6.77092 87.554 7.12255Q87.8114 7.47418 88.0511 7.83917Q88.2909 8.20417 88.5124 8.58177Q88.7339 8.95938 88.9368 9.34883Q89.1396 9.73829 89.3233 10.1388Q89.5071 10.5393 89.6714 10.95Q89.8357 11.3608 89.9802 11.7809Q90.1247 12.201 90.2491 12.6297Q90.3735 13.0584 90.4776 13.4947Q90.5816 13.931 90.6651 14.3741Q90.7486 14.8172 90.8114 15.2662Q90.8742 15.7152 90.9161 16.1691Q90.958 16.623 90.979 17.081Q91 17.539 91 18L91 17Q91 17.4611 90.979 17.919Q90.958 18.377 90.9161 18.8309Q90.8742 19.2848 90.8114 19.7338Q90.7486 20.1828 90.6651 20.6259Q90.5816 21.069 90.4776 21.5053Q90.3735 21.9416 90.2491 22.3703Q90.1247 22.799 89.9802 23.2191Q89.8357 23.6392 89.6714 24.05Q89.5071 24.4607 89.3233 24.8612Q89.1396 25.2617 88.9368 25.6512Q88.7339 26.0406 88.5124 26.4182Q88.2909 26.7958 88.0511 27.1608Q87.8114 27.5258 87.554 27.8775Q87.2965 28.2291 87.0218 28.5666Q86.7471 28.9042 86.4558 29.227Q86.1645 29.5498 85.8571 29.8571Q85.5498 30.1645 85.227 30.4558Q84.9042 30.7471 84.5667 31.0218Q84.2291 31.2965 83.8775 31.5539Q83.5258 31.8114 83.1608 32.0511Q82.7958 32.2909 82.4182 32.5124Q82.0406 32.7339 81.6512 32.9367Q81.2617 33.1396 80.8612 33.3233Q80.4607 33.5071 80.05 33.6714Q79.6393 33.8357 79.2191 33.9802Q78.799 34.1247 78.3703 34.2491Q77.9417 34.3735 77.5053 34.4776Q77.069 34.5816 76.6259 34.6651Q76.1828 34.7486 75.7338 34.8114Q75.2848 34.8742 74.8309 34.9161Q74.377 34.958 73.919 34.979Q73.4611 35 73 35L18 35Q17.539 35 17.081 34.979Q16.623 34.958 16.1691 34.9161Q15.7152 34.8742 15.2662 34.8114Q14.8172 34.7486 14.3741 34.6651Q13.931 34.5816 13.4947 34.4776Q13.0584 34.3735 12.6297 34.2491Q12.201 34.1247 11.7809 33.9802Q11.3608 33.8357 10.95 33.6714Q10.5393 33.5071 10.1388 33.3233Q9.73829 33.1396 9.34883 32.9367Q8.95938 32.7339 8.58178 32.5124Q8.20417 32.2909 7.83917 32.0511Q7.47418 31.8114 7.12255 31.5539Q6.77092 31.2965 6.43336 31.0218Q6.0958 30.7471 5.77301 30.4558Q5.45022 30.1645 5.14286 29.8571Q4.83549 29.5498 4.54418 29.227Q4.25286 28.9042 3.97819 28.5666Q3.70352 28.2291 3.44606 27.8775Q3.1886 27.5258 2.94886 27.1608Q2.70913 26.7958 2.48762 26.4182Q2.2661 26.0406 2.06326 25.6512Q1.86042 25.2617 1.67667 24.8612Q1.49291 24.4607 1.32862 24.05Q1.16433 23.6392 1.01983 23.2191Q0.875329 22.799 0.750921 22.3703Q0.626513 21.9416 0.52245 21.5053Q0.418387 21.069 0.334881 20.6259Q0.251374 20.1828 0.188595 19.7338Q0.125815 19.2848 0.0838912 18.8309Q0.041967 18.377 0.0209835 17.919Q0 17.4611 0 17L0 18Q0 17.539 0.0209835 17.081Q0.041967 16.623 0.0838912 16.1691Q0.125815 15.7152 0.188595 15.2662Q0.251374 14.8172 0.334881 14.3741Q0.418387 13.931 0.52245 13.4947Q0.626513 13.0584 0.750921 12.6297Q0.875329 12.201 1.01983 11.7809Q1.16433 11.3608 1.32862 10.95Q1.49291 10.5393 1.67667 10.1388Q1.86042 9.73829 2.06326 9.34883Q2.2661 8.95938 2.48762 8.58178Q2.70913 8.20417 2.94886 7.83917Q3.1886 7.47418 3.44606 7.12255Q3.70352 6.77092 3.97819 6.43336Q4.25286 6.0958 4.54418 5.77301Q4.83549 5.45022 5.14286 5.14286Q5.45022 4.83549 5.77301 4.54418Q6.09581 4.25286 6.43336 3.97819Q6.77092 3.70352 7.12255 3.44606Q7.47418 3.1886 7.83917 2.94886Q8.20417 2.70913 8.58177 2.48762Q8.95938 2.2661 9.34883 2.06326Q9.73829 1.86042 10.1388 1.67667Q10.5393 1.49291 10.95 1.32862Q11.3608 1.16433 11.7809 1.01983Q12.201 0.875329 12.6297 0.750921Q13.0584 0.626513 13.4947 0.52245Q13.931 0.418387 14.3741 0.334881Q14.8172 0.251374 15.2662 0.188595Q15.7152 0.125815 16.1691 0.0838912Q16.623 0.041967 17.081 0.0209835Q17.539 0 18 0Z" id="bg" fill="#FFFFFF" stroke="none" />
    <g id="Attach-file" fill="#F62F5E" transform="translate(0 10)">
      <path d="M64.292 8.544Q64.616 8.844 65.132 8.844Q65.648 8.844 65.972 8.538Q66.296 8.232 66.296 7.764Q66.296 7.332 65.972 7.044Q65.648 6.756 65.132 6.756Q64.616 6.756 64.292 7.056Q63.968 7.356 63.968 7.8Q63.968 8.244 64.292 8.544ZM61.604 9.888L63.26 9.888L63.26 11.328L61.652 11.328L61.652 16.2L59.78 16.2L59.78 11.328L58.784 11.328L58.784 9.888L59.78 9.888L59.78 9.6Q59.78 8.496 60.434 7.848Q61.088 7.2 62.276 7.2Q62.696 7.2 63.074 7.29Q63.452 7.38 63.704 7.548L63.212 8.904Q62.888 8.676 62.456 8.676Q61.604 8.676 61.604 9.612L61.604 9.888ZM53.726 10.368Q52.988 9.648 51.788 9.648Q51.164 9.648 50.636 9.846Q50.108 10.044 49.736 10.416L49.736 7.296L47.864 7.296L47.864 16.2L49.736 16.2L49.736 13.008Q49.736 12.144 50.156 11.706Q50.576 11.268 51.284 11.268Q51.92 11.268 52.256 11.646Q52.592 12.024 52.592 12.792L52.592 16.2L54.464 16.2L54.464 12.504Q54.464 11.088 53.726 10.368ZM67.808 7.296L69.68 7.296L69.68 16.2L67.808 16.2L67.808 7.296ZM15.5 14.4L19.4 14.4L20.144 16.2L22.184 16.2L18.428 7.8L16.508 7.8L12.764 16.2L14.756 16.2L15.5 14.4ZM26.414 16.194Q26.816 16.092 27.092 15.888L26.588 14.568Q26.276 14.808 25.832 14.808Q25.448 14.808 25.238 14.586Q25.028 14.364 25.028 13.956L25.028 11.328L26.636 11.328L26.636 9.888L25.028 9.888L25.028 8.316L23.156 8.316L23.156 9.888L22.16 9.888L22.16 11.328L23.156 11.328L23.156 13.98Q23.156 15.12 23.786 15.708Q24.416 16.296 25.568 16.296Q26.012 16.296 26.414 16.194ZM32.312 15.888Q32.036 16.092 31.634 16.194Q31.232 16.296 30.788 16.296Q29.636 16.296 29.006 15.708Q28.376 15.12 28.376 13.98L28.376 11.328L27.38 11.328L27.38 9.888L28.376 9.888L28.376 8.316L30.248 8.316L30.248 9.888L31.856 9.888L31.856 11.328L30.248 11.328L30.248 13.956Q30.248 14.364 30.458 14.586Q30.668 14.808 31.052 14.808Q31.496 14.808 31.808 14.568L32.312 15.888ZM38.276 10.362Q37.472 9.648 35.972 9.648Q35.192 9.648 34.454 9.852Q33.716 10.056 33.188 10.428L33.86 11.736Q34.208 11.46 34.706 11.298Q35.204 11.136 35.72 11.136Q36.464 11.136 36.836 11.466Q37.208 11.796 37.208 12.408L35.72 12.408Q34.304 12.408 33.626 12.924Q32.948 13.44 32.948 14.34Q32.948 14.904 33.236 15.348Q33.524 15.792 34.07 16.044Q34.616 16.296 35.36 16.296Q36.8 16.296 37.328 15.396L37.328 16.2L39.08 16.2L39.08 12.516Q39.08 11.076 38.276 10.362ZM43.892 16.296Q42.86 16.296 42.038 15.87Q41.216 15.444 40.754 14.688Q40.292 13.932 40.292 12.972Q40.292 12.012 40.754 11.256Q41.216 10.5 42.038 10.074Q42.86 9.648 43.892 9.648Q44.912 9.648 45.674 10.074Q46.436 10.5 46.784 11.292L45.332 12.072Q44.828 11.184 43.88 11.184Q43.148 11.184 42.668 11.664Q42.188 12.144 42.188 12.972Q42.188 13.8 42.668 14.28Q43.148 14.76 43.88 14.76Q44.84 14.76 45.332 13.872L46.784 14.664Q46.436 15.432 45.674 15.864Q44.912 16.296 43.892 16.296ZM77.708 13.5Q77.744 13.032 77.744 12.996Q77.744 11.988 77.306 11.226Q76.868 10.464 76.1 10.056Q75.332 9.648 74.384 9.648Q73.412 9.648 72.626 10.074Q71.84 10.5 71.39 11.262Q70.94 12.024 70.94 12.972Q70.94 13.932 71.396 14.688Q71.852 15.444 72.692 15.87Q73.532 16.296 74.624 16.296Q76.376 16.296 77.288 15.252L76.292 14.172Q75.956 14.496 75.566 14.646Q75.176 14.796 74.672 14.796Q73.94 14.796 73.448 14.448Q72.956 14.1 72.824 13.5L77.708 13.5ZM17.456 9.708L18.788 12.924L16.124 12.924L17.456 9.708ZM66.068 9.744L64.196 9.744L64.196 16.2L66.068 16.2L66.068 9.744ZM73.328 11.424Q73.76 11.064 74.396 11.064Q75.02 11.064 75.452 11.43Q75.884 11.796 75.98 12.408L72.8 12.408Q72.896 11.784 73.328 11.424ZM36.68 14.814Q36.308 15.036 35.828 15.036Q35.336 15.036 35.054 14.826Q34.772 14.616 34.772 14.256Q34.772 13.5 35.924 13.5L37.208 13.5L37.208 14.16Q37.052 14.592 36.68 14.814Z" />
    </g>
  </g>
</svg>