<?xml version="1.0" encoding="utf-8"?>
<svg width="221px" height="60px" viewBox="0 0 221 60" version="1.1" xmlns:xlink="http://www.w3.org/1999/xlink" xmlns="http://www.w3.org/2000/svg">
  <desc>Created with Lunacy</desc>
  <defs>
    <rect width="221" height="60" id="artboard_1" />
    <clipPath id="clip_1">
      <use xlink:href="#artboard_1" clip-rule="evenodd" />
    </clipPath>
  </defs>
  <g id="buttons/big/red" clip-path="url(#clip_1)">
    <use xlink:href="#artboard_1" stroke="none" fill="#FFFFFF" />
    <path d="M30 0L191 0Q191.768 0 192.532 0.0349725Q193.295 0.069945 194.051 0.139819Q194.808 0.209692 195.556 0.314325Q196.305 0.418957 197.043 0.558134Q197.782 0.697312 198.509 0.87075Q199.236 1.04419 199.951 1.25154Q200.665 1.45888 201.365 1.69971Q202.065 1.94054 202.75 2.21437Q203.435 2.48819 204.102 2.79445Q204.77 3.10071 205.419 3.43877Q206.068 3.77684 206.697 4.14603Q207.326 4.51522 207.935 4.91477Q208.543 5.31433 209.129 5.74343Q209.715 6.17254 210.278 6.63032Q210.84 7.0881 211.378 7.57363Q211.916 8.05915 212.429 8.57143Q212.941 9.08371 213.426 9.62169Q213.912 10.1597 214.37 10.7223Q214.827 11.2849 215.257 11.8709Q215.686 12.457 216.085 13.0653Q216.485 13.6736 216.854 14.303Q217.223 14.9323 217.561 15.5814Q217.899 16.2305 218.206 16.898Q218.512 17.5655 218.786 18.25Q219.059 18.9346 219.3 19.6348Q219.541 20.335 219.749 21.0495Q219.956 21.7639 220.129 22.4912Q220.303 23.2184 220.442 23.9569Q220.581 24.6954 220.686 25.4437Q220.79 26.192 220.86 26.9485Q220.93 27.7051 220.965 28.4683Q221 29.2316 221 30L221 30Q221 30.7684 220.965 31.5317Q220.93 32.2949 220.86 33.0515Q220.79 33.808 220.686 34.5563Q220.581 35.3046 220.442 36.0431Q220.303 36.7816 220.129 37.5089Q219.956 38.2361 219.748 38.9505Q219.541 39.665 219.3 40.3652Q219.059 41.0654 218.786 41.75Q218.512 42.4345 218.206 43.102Q217.899 43.7695 217.561 44.4186Q217.223 45.0677 216.854 45.6971Q216.485 46.3264 216.085 46.9347Q215.686 47.543 215.257 48.1291Q214.827 48.7151 214.37 49.2777Q213.912 49.8403 213.426 50.3783Q212.941 50.9163 212.429 51.4286Q211.916 51.9409 211.378 52.4264Q210.84 52.9119 210.278 53.3697Q209.715 53.8275 209.129 54.2566Q208.543 54.6857 207.935 55.0852Q207.326 55.4848 206.697 55.854Q206.068 56.2232 205.419 56.5612Q204.77 56.8993 204.102 57.2056Q203.435 57.5118 202.75 57.7856Q202.065 58.0595 201.365 58.3003Q200.665 58.5411 199.951 58.7485Q199.236 58.9558 198.509 59.1293Q197.782 59.3027 197.043 59.4419Q196.305 59.581 195.556 59.6857Q194.808 59.7903 194.051 59.8602Q193.295 59.9301 192.532 59.965Q191.768 60 191 60L30 60Q29.2316 60 28.4683 59.965Q27.7051 59.9301 26.9485 59.8602Q26.192 59.7903 25.4437 59.6857Q24.6954 59.5811 23.9569 59.4419Q23.2184 59.3027 22.4912 59.1293Q21.7639 58.9558 21.0495 58.7485Q20.335 58.5411 19.6348 58.3003Q18.9346 58.0595 18.25 57.7856Q17.5655 57.5118 16.898 57.2056Q16.2305 56.8993 15.5814 56.5612Q14.9323 56.2232 14.303 55.854Q13.6736 55.4848 13.0653 55.0852Q12.457 54.6857 11.8709 54.2566Q11.2849 53.8275 10.7223 53.3697Q10.1597 52.9119 9.62169 52.4264Q9.08371 51.9409 8.57143 51.4286Q8.05915 50.9163 7.57363 50.3783Q7.0881 49.8403 6.63032 49.2777Q6.17254 48.7151 5.74343 48.1291Q5.31433 47.543 4.91477 46.9347Q4.51522 46.3264 4.14603 45.697Q3.77684 45.0677 3.43877 44.4186Q3.10071 43.7695 2.79445 43.102Q2.48819 42.4345 2.21437 41.75Q1.94054 41.0654 1.69971 40.3652Q1.45888 39.665 1.25154 38.9505Q1.04419 38.2361 0.87075 37.5089Q0.697312 36.7816 0.558134 36.0431Q0.418957 35.3046 0.314325 34.5563Q0.209692 33.808 0.139819 33.0515Q0.069945 32.2949 0.0349725 31.5317Q0 30.7684 0 30L0 30Q0 29.2316 0.0349725 28.4683Q0.069945 27.7051 0.139819 26.9485Q0.209692 26.192 0.314325 25.4437Q0.418957 24.6954 0.558134 23.9569Q0.697312 23.2184 0.87075 22.4912Q1.04419 21.7639 1.25154 21.0495Q1.45888 20.335 1.69971 19.6348Q1.94054 18.9346 2.21437 18.25Q2.48819 17.5655 2.79445 16.898Q3.10071 16.2305 3.43877 15.5814Q3.77684 14.9323 4.14603 14.303Q4.51522 13.6736 4.91477 13.0653Q5.31433 12.457 5.74343 11.8709Q6.17254 11.2849 6.63032 10.7223Q7.0881 10.1597 7.57363 9.62169Q8.05915 9.08371 8.57143 8.57143Q9.08371 8.05915 9.62169 7.57363Q10.1597 7.0881 10.7223 6.63032Q11.2849 6.17254 11.8709 5.74343Q12.457 5.31433 13.0653 4.91477Q13.6736 4.51522 14.303 4.14603Q14.9323 3.77684 15.5814 3.43877Q16.2305 3.10071 16.898 2.79445Q17.5655 2.48819 18.25 2.21437Q18.9346 1.94054 19.6348 1.69971Q20.335 1.45888 21.0495 1.25154Q21.7639 1.04419 22.4912 0.87075Q23.2184 0.697312 23.9569 0.558134Q24.6954 0.418957 25.4437 0.314325Q26.192 0.209692 26.9485 0.139819Q27.7051 0.069945 28.4683 0.0349725Q29.2316 0 30 0Z" id="bg" fill="#F62F5E" stroke="none" />
    <g id="Sign-In" fill="#FFFFFF" transform="translate(0 21)">
      <path d="M92.932 7.392Q93.364 7.792 94.052 7.792Q94.74 7.792 95.172 7.384Q95.604 6.976 95.604 6.352Q95.604 5.776 95.172 5.392Q94.74 5.008 94.052 5.008Q93.364 5.008 92.932 5.408Q92.5 5.808 92.5 6.4Q92.5 6.992 92.932 7.392ZM83.884 17.432Q85.124 17.792 86.452 17.792Q87.988 17.792 89.06 17.328Q90.132 16.864 90.668 16.072Q91.204 15.28 91.204 14.32Q91.204 13.2 90.62 12.544Q90.036 11.888 89.22 11.584Q88.404 11.28 87.124 10.976Q85.892 10.704 85.292 10.424Q84.692 10.144 84.692 9.568Q84.692 8.992 85.212 8.64Q85.732 8.288 86.82 8.288Q88.372 8.288 89.924 9.168L90.724 7.2Q89.956 6.72 88.932 6.464Q87.908 6.208 86.836 6.208Q85.3 6.208 84.236 6.672Q83.172 7.136 82.644 7.928Q82.116 8.72 82.116 9.696Q82.116 10.816 82.7 11.488Q83.284 12.16 84.1 12.464Q84.916 12.768 86.196 13.072Q87.028 13.264 87.516 13.424Q88.004 13.584 88.316 13.848Q88.628 14.112 88.628 14.512Q88.628 15.056 88.1 15.384Q87.572 15.712 86.468 15.712Q85.476 15.712 84.484 15.392Q83.492 15.072 82.772 14.544L81.892 16.496Q82.644 17.072 83.884 17.432ZM124.58 6.4L127.172 6.4L127.172 17.6L124.58 17.6L124.58 6.4ZM106.5 8.992L106.5 16.16Q106.5 18.528 105.268 19.68Q104.036 20.832 101.668 20.832Q100.42 20.832 99.3 20.528Q98.18 20.224 97.444 19.648L98.436 17.856Q98.98 18.304 99.812 18.568Q100.644 18.832 101.476 18.832Q102.772 18.832 103.388 18.248Q104.004 17.664 104.004 16.48L104.004 16.112Q103.028 17.184 101.284 17.184Q100.1 17.184 99.116 16.664Q98.132 16.144 97.556 15.2Q96.98 14.256 96.98 13.024Q96.98 11.792 97.556 10.848Q98.132 9.904 99.116 9.384Q100.1 8.864 101.284 8.864Q103.156 8.864 104.132 10.096L104.132 8.992L106.5 8.992ZM116.636 9.824Q115.652 8.864 114.052 8.864Q113.172 8.864 112.436 9.16Q111.7 9.456 111.204 10L111.204 8.992L108.82 8.992L108.82 17.6L111.316 17.6L111.316 13.344Q111.316 12.192 111.876 11.608Q112.436 11.024 113.38 11.024Q114.228 11.024 114.676 11.528Q115.124 12.032 115.124 13.056L115.124 17.6L117.62 17.6L117.62 12.672Q117.62 10.784 116.636 9.824ZM137.468 9.824Q136.484 8.864 134.884 8.864Q134.004 8.864 133.268 9.16Q132.532 9.456 132.036 10L132.036 8.992L129.652 8.992L129.652 17.6L132.148 17.6L132.148 13.344Q132.148 12.192 132.708 11.608Q133.268 11.024 134.212 11.024Q135.06 11.024 135.508 11.528Q135.956 12.032 135.956 13.056L135.956 17.6L138.452 17.6L138.452 12.672Q138.452 10.784 137.468 9.824ZM95.3 17.6L95.3 8.992L92.804 8.992L92.804 17.6L95.3 17.6ZM101.78 15.136Q102.772 15.136 103.404 14.552Q104.036 13.968 104.036 13.024Q104.036 12.08 103.404 11.496Q102.772 10.912 101.78 10.912Q100.788 10.912 100.148 11.496Q99.508 12.08 99.508 13.024Q99.508 13.968 100.148 14.552Q100.788 15.136 101.78 15.136Z" />
    </g>
  </g>
</svg>