<?xml version="1.0" encoding="utf-8"?>
<svg width="16px" height="16px" viewBox="0 0 16 16" version="1.1" xmlns:xlink="http://www.w3.org/1999/xlink" xmlns="http://www.w3.org/2000/svg">
  <desc>Created with Lunacy</desc>
  <defs>
    <rect width="16" height="16" id="artboard_1" />
    <clipPath id="clip_1">
      <use xlink:href="#artboard_1" clip-rule="evenodd" />
    </clipPath>
  </defs>
  <g id="controls/check/off" clip-path="url(#clip_1)">
    <use xlink:href="#artboard_1" stroke="none" fill="#FFFFFF" />
    <path d="M4 0L12 0Q12.205 0 12.4069 0.0186425Q12.6087 0.037285 12.8057 0.0744179Q13.0028 0.111551 13.1934 0.166871Q13.384 0.222192 13.5667 0.295249Q13.7493 0.368306 13.9225 0.458503Q14.0957 0.5487 14.258 0.655303Q14.4203 0.761905 14.5704 0.884043Q14.7205 1.00618 14.8571 1.14286Q14.9938 1.27953 15.116 1.42964Q15.2381 1.57974 15.3447 1.74204Q15.4513 1.90434 15.5415 2.07752Q15.6317 2.2507 15.7048 2.43334Q15.7778 2.61598 15.8331 2.8066Q15.8885 2.99721 15.9256 3.19425Q15.9627 3.39129 15.9814 3.59314Q16 3.79499 16 4L16 11.9357Q16 12.1407 15.9814 12.3426Q15.9627 12.5444 15.9256 12.7415Q15.8884 12.9385 15.8331 13.1291Q15.7778 13.3197 15.7048 13.5024Q15.6317 13.685 15.5415 13.8582Q15.4513 14.0314 15.3447 14.1937Q15.2381 14.356 15.116 14.5061Q14.9938 14.6562 14.8571 14.7929Q14.7205 14.9295 14.5704 15.0517Q14.4203 15.1738 14.258 15.2804Q14.0957 15.387 13.9225 15.4772Q13.7493 15.5674 13.5667 15.6405Q13.384 15.7135 13.1934 15.7689Q13.0028 15.8242 12.8058 15.8613Q12.6087 15.8984 12.4069 15.9171Q12.205 15.9357 12 15.9357L4 15.9357Q3.79499 15.9357 3.59314 15.9171Q3.39129 15.8984 3.19425 15.8613Q2.99721 15.8242 2.8066 15.7689Q2.61598 15.7135 2.43334 15.6405Q2.2507 15.5674 2.07752 15.4772Q1.90434 15.387 1.74204 15.2804Q1.57974 15.1738 1.42964 15.0517Q1.27953 14.9295 1.14286 14.7929Q1.00618 14.6562 0.884043 14.5061Q0.761905 14.356 0.655303 14.1937Q0.5487 14.0314 0.458503 13.8582Q0.368306 13.685 0.295249 13.5024Q0.222192 13.3197 0.166871 13.1291Q0.111551 12.9385 0.0744179 12.7415Q0.037285 12.5444 0.0186425 12.3426Q0 12.1407 0 11.9357L0 4Q0 3.79499 0.0186425 3.59314Q0.037285 3.39129 0.0744179 3.19425Q0.111551 2.99721 0.166871 2.8066Q0.222192 2.61598 0.295249 2.43334Q0.368306 2.2507 0.458503 2.07752Q0.5487 1.90434 0.655303 1.74204Q0.761905 1.57974 0.884043 1.42964Q1.00618 1.27953 1.14286 1.14286Q1.27953 1.00618 1.42964 0.884043Q1.57974 0.761905 1.74204 0.655303Q1.90434 0.5487 2.07752 0.458503Q2.2507 0.368306 2.43334 0.295249Q2.61598 0.222192 2.8066 0.166871Q2.99721 0.111551 3.19425 0.0744179Q3.39129 0.037285 3.59314 0.0186425Q3.79499 0 4 0Z" id="bg" fill="#EFEFEF" stroke="none" />
  </g>
</svg>