<?xml version="1.0" encoding="utf-8"?>
<svg width="16px" height="16px" viewBox="0 0 16 16" version="1.1" xmlns:xlink="http://www.w3.org/1999/xlink" xmlns="http://www.w3.org/2000/svg">
  <desc>Created with Lunacy</desc>
  <defs>
    <path d="M4 0L12 0Q12.205 0 12.4069 0.0186425Q12.6087 0.037285 12.8057 0.0744179Q13.0028 0.111551 13.1934 0.166871Q13.384 0.222192 13.5667 0.295249Q13.7493 0.368306 13.9225 0.458503Q14.0957 0.5487 14.258 0.655303Q14.4203 0.761905 14.5704 0.884043Q14.7205 1.00618 14.8571 1.14286Q14.9938 1.27953 15.116 1.42964Q15.2381 1.57974 15.3447 1.74204Q15.4513 1.90434 15.5415 2.07752Q15.6317 2.2507 15.7048 2.43334Q15.7778 2.61598 15.8331 2.8066Q15.8885 2.99721 15.9256 3.19425Q15.9627 3.39129 15.9814 3.59314Q16 3.79499 16 4L16 12.0645Q16 12.2696 15.9814 12.4714Q15.9627 12.6733 15.9256 12.8703Q15.8884 13.0673 15.8331 13.2579Q15.7778 13.4486 15.7048 13.6312Q15.6317 13.8138 15.5415 13.987Q15.4513 14.1602 15.3447 14.3225Q15.2381 14.4848 15.116 14.6349Q14.9938 14.785 14.8571 14.9217Q14.7205 15.0584 14.5704 15.1805Q14.4203 15.3026 14.258 15.4092Q14.0957 15.5158 13.9225 15.606Q13.7493 15.6962 13.5667 15.7693Q13.384 15.8423 13.1934 15.8977Q13.0028 15.953 12.8058 15.9901Q12.6087 16.0273 12.4069 16.0459Q12.205 16.0645 12 16.0645L4 16.0645Q3.79499 16.0645 3.59314 16.0459Q3.39129 16.0273 3.19425 15.9901Q2.99721 15.953 2.8066 15.8977Q2.61598 15.8423 2.43334 15.7693Q2.2507 15.6962 2.07752 15.606Q1.90434 15.5158 1.74204 15.4092Q1.57974 15.3026 1.42964 15.1805Q1.27953 15.0584 1.14286 14.9217Q1.00618 14.785 0.884043 14.6349Q0.761905 14.4848 0.655303 14.3225Q0.5487 14.1602 0.458503 13.987Q0.368306 13.8138 0.295249 13.6312Q0.222192 13.4486 0.166871 13.2579Q0.111551 13.0673 0.0744179 12.8703Q0.037285 12.6733 0.0186425 12.4714Q0 12.2696 0 12.0645L0 4Q0 3.79499 0.0186425 3.59314Q0.037285 3.39129 0.0744179 3.19425Q0.111551 2.99721 0.166871 2.8066Q0.222192 2.61598 0.295249 2.43334Q0.368306 2.2507 0.458503 2.07752Q0.5487 1.90434 0.655303 1.74204Q0.761905 1.57974 0.884043 1.42964Q1.00618 1.27953 1.14286 1.14286Q1.27953 1.00618 1.42964 0.884043Q1.57974 0.761905 1.74204 0.655303Q1.90434 0.5487 2.07752 0.458503Q2.2507 0.368306 2.43334 0.295249Q2.61598 0.222192 2.8066 0.166871Q2.99721 0.111551 3.19425 0.0744179Q3.39129 0.037285 3.59314 0.0186425Q3.79499 0 4 0Z" id="path_1" />
    <rect width="16" height="16" id="artboard_1" />
    <clipPath id="clip_1">
      <use xlink:href="#artboard_1" clip-rule="evenodd" />
    </clipPath>
    <clipPath id="clip_2">
      <use xlink:href="#path_1" />
    </clipPath>
  </defs>
  <g id="controls/check/on" clip-path="url(#clip_1)">
    <use xlink:href="#artboard_1" stroke="none" fill="#FFFFFF" />
    <g id="bg">
      <use stroke="none" fill="#6EB2FB" xlink:href="#path_1" />
      <g clip-path="url(#clip_2)">
        <use xlink:href="#path_1" fill="none" stroke="#6EB2FB" stroke-width="2" />
      </g>
    </g>
    <path d="M0 1.9615L3.00918 4.98663L8.02928 0" transform="translate(4.04275 6.057743)" id="check" fill="none" stroke="#FFFFFF" stroke-width="2" stroke-linecap="round" />
  </g>
</svg>