<?xml version="1.0" encoding="utf-8"?>
<svg width="24px" height="27px" viewBox="0 0 24 27" version="1.1" xmlns:xlink="http://www.w3.org/1999/xlink" xmlns="http://www.w3.org/2000/svg">
  <desc>Created with Lunacy</desc>
  <defs>
    <rect width="24" height="27" id="artboard_1" />
    <clipPath id="clip_1">
      <use xlink:href="#artboard_1" clip-rule="evenodd" />
    </clipPath>
  </defs>
  <g id="controls/number/white" clip-path="url(#clip_1)">
    <use xlink:href="#artboard_1" stroke="none" fill="#FFFFFF" />
    <path d="M12 24C18.6274 24 24 18.6274 24 12C24 5.37258 18.6274 0 12 0C5.37258 0 0 5.37258 0 12C0 18.6274 5.37258 24 12 24Z" transform="translate(0 3)" id="bg" fill="#FFFFFF" stroke="none" />
    <g id="6" fill="#F62F5E" transform="translate(6.904 0)">
      <path d="M6.016 10.576Q7.088 10.576 7.968 11.008Q8.848 11.44 9.36 12.232Q9.872 13.024 9.872 14.064Q9.872 15.184 9.312 16.032Q8.752 16.88 7.784 17.336Q6.816 17.792 5.632 17.792Q3.28 17.792 1.952 16.352Q0.624 14.912 0.624 12.24Q0.624 10.336 1.344 8.976Q2.064 7.616 3.352 6.912Q4.64 6.208 6.336 6.208Q7.232 6.208 8.056 6.408Q8.88 6.608 9.456 6.976L8.496 8.88Q7.664 8.32 6.4 8.32Q4.976 8.32 4.144 9.152Q3.312 9.984 3.248 11.568Q4.24 10.576 6.016 10.576ZM5.488 15.856Q6.32 15.856 6.84 15.408Q7.36 14.96 7.36 14.192Q7.36 13.424 6.84 12.968Q6.32 12.512 5.456 12.512Q4.608 12.512 4.064 12.984Q3.52 13.456 3.52 14.192Q3.52 14.928 4.048 15.392Q4.576 15.856 5.488 15.856Z" />
    </g>
  </g>
</svg>