<?xml version="1.0" encoding="utf-8"?>
<svg width="16px" height="16px" viewBox="0 0 16 16" version="1.1" xmlns:xlink="http://www.w3.org/1999/xlink" xmlns="http://www.w3.org/2000/svg">
  <desc>Created with Lunacy</desc>
  <defs>
    <rect width="16" height="16" id="artboard_1" />
    <clipPath id="clip_1">
      <use xlink:href="#artboard_1" clip-rule="evenodd" />
    </clipPath>
  </defs>
  <g id="controls/radio/off" clip-path="url(#clip_1)">
    <use xlink:href="#artboard_1" stroke="none" fill="#FFFFFF" />
    <path d="M8 0L8 0Q8.20491 0 8.40845 0.009326Q8.61198 0.018652 8.81373 0.037285Q9.01548 0.055918 9.21502 0.0838199Q9.41457 0.111722 9.6115 0.148836Q9.80844 0.18595 10.0024 0.2322Q10.1963 0.27845 10.3868 0.333743Q10.5773 0.389035 10.7641 0.453256Q10.9508 0.517478 11.1333 0.590497Q11.3159 0.663517 11.4939 0.745186Q11.6719 0.826855 11.845 0.917006Q12.0181 1.00716 12.1859 1.10561Q12.3537 1.20406 12.5159 1.31061Q12.6781 1.41715 12.8344 1.53158Q12.9907 1.64601 13.1407 1.76809Q13.2908 1.89016 13.4342 2.01963Q13.5777 2.14911 13.7143 2.28571Q13.8509 2.42232 13.9804 2.56578Q14.1098 2.70925 14.2319 2.85927Q14.354 3.0093 14.4684 3.16558Q14.5828 3.32186 14.6894 3.48408Q14.7959 3.6463 14.8944 3.81412Q14.9928 3.98195 15.083 4.15504Q15.1731 4.32813 15.2548 4.50613Q15.3365 4.68413 15.4095 4.86668Q15.4825 5.04923 15.5467 5.23595Q15.611 5.42268 15.6663 5.61319Q15.7216 5.80371 15.7678 5.99764Q15.8141 6.19157 15.8512 6.3885Q15.8883 6.58544 15.9162 6.78498Q15.9441 6.98453 15.9627 7.18627Q15.9813 7.38802 15.9907 7.59155Q16 7.79509 16 8L16 8Q16 8.20491 15.9907 8.40845Q15.9813 8.61198 15.9627 8.81373Q15.9441 9.01548 15.9162 9.21502Q15.8883 9.41457 15.8512 9.6115Q15.8141 9.80844 15.7678 10.0024Q15.7216 10.1963 15.6663 10.3868Q15.611 10.5773 15.5467 10.7641Q15.4825 10.9508 15.4095 11.1333Q15.3365 11.3159 15.2548 11.4939Q15.1731 11.6719 15.083 11.845Q14.9928 12.0181 14.8944 12.1859Q14.7959 12.3537 14.6894 12.5159Q14.5828 12.6781 14.4684 12.8344Q14.354 12.9907 14.2319 13.1407Q14.1098 13.2908 13.9804 13.4342Q13.8509 13.5777 13.7143 13.7143Q13.5777 13.8509 13.4342 13.9804Q13.2908 14.1098 13.1407 14.2319Q12.9907 14.354 12.8344 14.4684Q12.6781 14.5828 12.5159 14.6894Q12.3537 14.7959 12.1859 14.8944Q12.0181 14.9928 11.845 15.083Q11.6719 15.1731 11.4939 15.2548Q11.3159 15.3365 11.1333 15.4095Q10.9508 15.4825 10.764 15.5467Q10.5773 15.611 10.3868 15.6663Q10.1963 15.7216 10.0024 15.7678Q9.80844 15.8141 9.6115 15.8512Q9.41457 15.8883 9.21502 15.9162Q9.01548 15.9441 8.81373 15.9627Q8.61198 15.9813 8.40845 15.9907Q8.20491 16 8 16L8 16Q7.79509 16 7.59155 15.9907Q7.38802 15.9813 7.18627 15.9627Q6.98453 15.9441 6.78498 15.9162Q6.58544 15.8883 6.3885 15.8512Q6.19157 15.8141 5.99764 15.7678Q5.80371 15.7216 5.6132 15.6663Q5.42268 15.611 5.23595 15.5467Q5.04923 15.4825 4.86668 15.4095Q4.68413 15.3365 4.50613 15.2548Q4.32813 15.1731 4.15504 15.083Q3.98195 14.9928 3.81412 14.8944Q3.6463 14.7959 3.48408 14.6894Q3.32186 14.5828 3.16558 14.4684Q3.0093 14.354 2.85927 14.2319Q2.70925 14.1098 2.56578 13.9804Q2.42232 13.8509 2.28571 13.7143Q2.14911 13.5777 2.01963 13.4342Q1.89016 13.2908 1.76809 13.1407Q1.64601 12.9907 1.53158 12.8344Q1.41715 12.6781 1.31061 12.5159Q1.20406 12.3537 1.10561 12.1859Q1.00716 12.0181 0.917006 11.845Q0.826855 11.6719 0.745186 11.4939Q0.663517 11.3159 0.590497 11.1333Q0.517478 10.9508 0.453256 10.764Q0.389035 10.5773 0.333743 10.3868Q0.27845 10.1963 0.2322 10.0024Q0.18595 9.80844 0.148836 9.6115Q0.111722 9.41457 0.0838199 9.21502Q0.055918 9.01548 0.037285 8.81373Q0.018652 8.61198 0.009326 8.40845Q0 8.20491 0 8L0 8Q0 7.79509 0.009326 7.59155Q0.018652 7.38802 0.037285 7.18627Q0.055918 6.98453 0.0838199 6.78498Q0.111722 6.58544 0.148836 6.3885Q0.18595 6.19157 0.2322 5.99764Q0.27845 5.80371 0.333743 5.6132Q0.389035 5.42268 0.453256 5.23595Q0.517478 5.04923 0.590497 4.86668Q0.663517 4.68413 0.745186 4.50613Q0.826855 4.32813 0.917006 4.15504Q1.00716 3.98195 1.10561 3.81412Q1.20406 3.6463 1.31061 3.48408Q1.41715 3.32186 1.53158 3.16558Q1.64601 3.0093 1.76809 2.85927Q1.89016 2.70925 2.01963 2.56578Q2.14911 2.42232 2.28571 2.28571Q2.42232 2.14911 2.56578 2.01963Q2.70925 1.89016 2.85927 1.76809Q3.0093 1.64601 3.16558 1.53158Q3.32186 1.41715 3.48408 1.31061Q3.6463 1.20406 3.81412 1.10561Q3.98195 1.00716 4.15504 0.917006Q4.32813 0.826855 4.50613 0.745186Q4.68413 0.663517 4.86668 0.590497Q5.04923 0.517478 5.23595 0.453256Q5.42268 0.389035 5.61319 0.333743Q5.80371 0.27845 5.99764 0.2322Q6.19157 0.18595 6.3885 0.148836Q6.58544 0.111722 6.78498 0.0838199Q6.98453 0.055918 7.18627 0.037285Q7.38802 0.018652 7.59155 0.009326Q7.79509 0 8 0Z" id="bg" fill="#EFEFEF" stroke="none" />
  </g>
</svg>