<?xml version="1.0" encoding="utf-8"?>
<svg width="20px" height="20px" viewBox="0 0 20 20" version="1.1" xmlns:xlink="http://www.w3.org/1999/xlink" xmlns="http://www.w3.org/2000/svg">
  <desc>Created with Lunacy</desc>
  <defs>
    <rect width="20" height="20" id="artboard_1" />
    <clipPath id="clip_1">
      <use xlink:href="#artboard_1" clip-rule="evenodd" />
    </clipPath>
  </defs>
  <g id="icons/lock/black" clip-path="url(#clip_1)">
    <use xlink:href="#artboard_1" stroke="none" fill="#FFFFFF" />
    <path d="M0 0L20 0L20 20L0 20L0 0Z" id="bounds" fill="none" stroke="none" />
    <path d="M7.10543e-15 0L10 0L10 5.05967Q10 5.16218 9.99068 5.2631Q9.98136 5.36403 9.96279 5.46254Q9.94423 5.56106 9.91656 5.65637Q9.8889 5.75168 9.85238 5.843Q9.81585 5.93432 9.77075 6.02091Q9.72565 6.1075 9.67235 6.18865Q9.61905 6.2698 9.55798 6.34485Q9.49691 6.4199 9.42857 6.48824Q9.36023 6.55658 9.28518 6.61765Q9.21013 6.67872 9.12898 6.73202Q9.04783 6.78532 8.96124 6.83042Q8.87465 6.87552 8.78333 6.91204Q8.69201 6.94857 8.5967 6.97623Q8.50139 7.00389 8.40287 7.02246Q8.30436 7.04103 8.20343 7.05035Q8.10251 7.05967 8 7.05967L2 7.05967Q1.89749 7.05967 1.79657 7.05035Q1.69564 7.04103 1.59713 7.02246Q1.49861 7.00389 1.4033 6.97623Q1.30799 6.94857 1.21667 6.91204Q1.12535 6.87552 1.03876 6.83042Q0.95217 6.78532 0.871019 6.73202Q0.789868 6.67872 0.714818 6.61765Q0.639767 6.55658 0.571429 6.48824Q0.50309 6.4199 0.442021 6.34485Q0.380953 6.2698 0.327651 6.18865Q0.27435 6.1075 0.229252 6.02091Q0.184153 5.93432 0.147624 5.843Q0.111096 5.75168 0.0834357 5.65637Q0.0557754 5.56106 0.037209 5.46254Q0.0186425 5.36403 0.00932125 5.2631Q5.05873e-09 5.16218 4.95828e-09 5.05967L7.10543e-15 0Z" transform="translate(5 8.940332)" id="oval" fill="none" stroke="#2E2E2E" stroke-width="2" stroke-linecap="round" stroke-linejoin="round" />
    <path d="M5.97055 4C5.97055 4 6.51151 2.53765e-16 2.95616 0C-0.599201 -2.53765e-16 0.0457009 4 0.0457009 4" transform="translate(7 4)" id="oval" fill="none" stroke="#2E2E2E" stroke-width="2" stroke-linecap="round" stroke-linejoin="round" />
  </g>
</svg>