<?xml version="1.0" encoding="utf-8"?>
<svg width="20px" height="20px" viewBox="0 0 20 20" version="1.1" xmlns:xlink="http://www.w3.org/1999/xlink" xmlns="http://www.w3.org/2000/svg">
  <desc>Created with Lunacy</desc>
  <defs>
    <rect width="20" height="20" id="artboard_1" />
    <clipPath id="clip_1">
      <use xlink:href="#artboard_1" clip-rule="evenodd" />
    </clipPath>
  </defs>
  <g id="icons/grid/black" clip-path="url(#clip_1)">
    <use xlink:href="#artboard_1" stroke="none" fill="#FFFFFF" />
    <path d="M0 0L20 0L20 20L0 20L0 0Z" id="bounds" fill="none" stroke="none" />
    <path d="M1 2C1.55228 2 2 1.55228 2 1C2 0.447715 1.55228 0 1 0C0.447715 0 0 0.447715 0 1C0 1.55228 0.447715 2 1 2Z" transform="translate(9 9)" id="Oval-33-Copy" fill="none" stroke="#2E2E2E" stroke-width="2" stroke-linecap="round" stroke-linejoin="round" />
    <path d="M1 2C1.55228 2 2 1.55228 2 1C2 0.447715 1.55228 0 1 0C0.447715 0 0 0.447715 0 1C0 1.55228 0.447715 2 1 2Z" transform="translate(15 9)" id="Oval-33-Copy-2" fill="none" stroke="#2E2E2E" stroke-width="2" stroke-linecap="round" stroke-linejoin="round" />
    <path d="M1 2C1.55228 2 2 1.55228 2 1C2 0.447715 1.55228 0 1 0C0.447715 0 0 0.447715 0 1C0 1.55228 0.447715 2 1 2Z" transform="translate(3 9)" id="Oval-33-Copy-3" fill="none" stroke="#2E2E2E" stroke-width="2" stroke-linecap="round" stroke-linejoin="round" />
    <path d="M1 2C1.55228 2 2 1.55228 2 1C2 0.447715 1.55228 0 1 0C0.447715 0 0 0.447715 0 1C0 1.55228 0.447715 2 1 2Z" transform="translate(9 15)" id="Oval-33-Copy-6" fill="none" stroke="#2E2E2E" stroke-width="2" stroke-linecap="round" stroke-linejoin="round" />
    <path d="M1 2C1.55228 2 2 1.55228 2 1C2 0.447715 1.55228 0 1 0C0.447715 0 0 0.447715 0 1C0 1.55228 0.447715 2 1 2Z" transform="translate(15 15)" id="Oval-33-Copy-5" fill="none" stroke="#2E2E2E" stroke-width="2" stroke-linecap="round" stroke-linejoin="round" />
    <path d="M1 2C1.55228 2 2 1.55228 2 1C2 0.447715 1.55228 0 1 0C0.447715 0 0 0.447715 0 1C0 1.55228 0.447715 2 1 2Z" transform="translate(3 15)" id="Oval-33-Copy-4" fill="none" stroke="#2E2E2E" stroke-width="2" stroke-linecap="round" stroke-linejoin="round" />
    <path d="M1 2C1.55228 2 2 1.55228 2 1C2 0.447715 1.55228 0 1 0C0.447715 0 0 0.447715 0 1C0 1.55228 0.447715 2 1 2Z" transform="translate(9 3)" id="Oval-33-Copy-9" fill="none" stroke="#2E2E2E" stroke-width="2" stroke-linecap="round" stroke-linejoin="round" />
    <path d="M1 2C1.55228 2 2 1.55228 2 1C2 0.447715 1.55228 0 1 0C0.447715 0 0 0.447715 0 1C0 1.55228 0.447715 2 1 2Z" transform="translate(15 3)" id="Oval-33-Copy-8" fill="none" stroke="#2E2E2E" stroke-width="2" stroke-linecap="round" stroke-linejoin="round" />
    <path d="M1 2C1.55228 2 2 1.55228 2 1C2 0.447715 1.55228 0 1 0C0.447715 0 0 0.447715 0 1C0 1.55228 0.447715 2 1 2Z" transform="translate(3 3)" id="Oval-33-Copy-7" fill="none" stroke="#2E2E2E" stroke-width="2" stroke-linecap="round" stroke-linejoin="round" />
  </g>
</svg>