<?xml version="1.0" encoding="utf-8"?>
<svg width="20px" height="20px" viewBox="0 0 20 20" version="1.1" xmlns:xlink="http://www.w3.org/1999/xlink" xmlns="http://www.w3.org/2000/svg">
  <desc>Created with Lunacy</desc>
  <defs>
    <rect width="20" height="20" id="artboard_1" />
    <clipPath id="clip_1">
      <use xlink:href="#artboard_1" clip-rule="evenodd" />
    </clipPath>
  </defs>
  <g id="icons/filter/red" clip-path="url(#clip_1)">
    <use xlink:href="#artboard_1" stroke="none" fill="#FFFFFF" />
    <path d="M0 0L20 0L20 20L0 20L0 0Z" id="bounds" fill="none" stroke="none" />
    <path d="M0.561245 0L12.5612 0Q12.6125 0 12.6599 0.00350745Q12.7073 0.00701489 12.7504 0.0140012Q12.7936 0.0209875 12.8321 0.0313956Q12.8707 0.0418038 12.9043 0.0555489Q12.9379 0.069294 12.9664 0.0862639Q12.9948 0.103234 13.0179 0.12329Q13.0409 0.143347 13.0583 0.166326Q13.0757 0.189305 13.0874 0.21502Q13.0991 0.240735 13.1049 0.268975Q13.1107 0.297216 13.1106 0.327752Q13.1106 0.358288 13.1046 0.39087Q13.0986 0.423452 13.0868 0.457815Q13.075 0.492177 13.0575 0.528041Q13.0399 0.563904 13.0168 0.600975Q12.9936 0.638046 12.9651 0.676022Q12.9365 0.713998 12.9027 0.75257L6.56111 8L0.219742 0.752583Q0.185992 0.71401 0.157423 0.676033Q0.128854 0.638056 0.105701 0.600985Q0.0825469 0.563913 0.0649968 0.528049Q0.0474468 0.492186 0.0356437 0.457822Q0.0238406 0.423459 0.0178806 0.390876Q0.0119206 0.358294 0.0118523 0.327757Q0.0117841 0.297221 0.0176082 0.26898Q0.0234322 0.240739 0.0351011 0.215024Q0.04677 0.189309 0.0641885 0.166329Q0.081607 0.143349 0.104633 0.123292Q0.127659 0.103236 0.156105 0.0862654Q0.184551 0.0692951 0.218185 0.0555498Q0.251818 0.0418045 0.290365 0.0313961Q0.328912 0.0209878 0.372058 0.0140014Q0.415204 0.00701501 0.462598 0.00350751Q0.509991 0 0.561245 0Z" transform="translate(3.438755 3)" id="path" fill="none" stroke="#F62F5E" stroke-width="2" stroke-linecap="round" stroke-linejoin="round" />
    <path d="M1 0L1 6.04221" transform="translate(9.041651 11.00945)" id="path" fill="none" stroke="#F62F5E" stroke-width="2" stroke-linecap="round" stroke-linejoin="round" />
  </g>
</svg>