<?xml version="1.0" encoding="utf-8"?>
<svg width="260px" height="36px" viewBox="0 0 260 36" version="1.1" xmlns:xlink="http://www.w3.org/1999/xlink" xmlns="http://www.w3.org/2000/svg">
  <desc>Created with Lunacy</desc>
  <defs>
    <path d="M18 0L242 0Q242.461 0 242.919 0.0209835Q243.377 0.041967 243.831 0.0838912Q244.285 0.125815 244.734 0.188595Q245.183 0.251374 245.626 0.334881Q246.069 0.418387 246.505 0.52245Q246.942 0.626513 247.37 0.750921Q247.799 0.875329 248.219 1.01983Q248.639 1.16433 249.05 1.32862Q249.461 1.49291 249.861 1.67667Q250.262 1.86042 250.651 2.06326Q251.041 2.2661 251.418 2.48762Q251.796 2.70913 252.161 2.94886Q252.526 3.1886 252.877 3.44606Q253.229 3.70352 253.567 3.97819Q253.904 4.25286 254.227 4.54418Q254.55 4.83549 254.857 5.14286Q255.165 5.45022 255.456 5.77301Q255.747 6.09581 256.022 6.43336Q256.297 6.77092 256.554 7.12255Q256.811 7.47418 257.051 7.83917Q257.291 8.20417 257.512 8.58177Q257.734 8.95938 257.937 9.34883Q258.14 9.73829 258.323 10.1388Q258.507 10.5393 258.671 10.95Q258.836 11.3608 258.98 11.7809Q259.125 12.201 259.249 12.6297Q259.374 13.0584 259.478 13.4947Q259.582 13.931 259.665 14.3741Q259.749 14.8172 259.811 15.2662Q259.874 15.7152 259.916 16.1691Q259.958 16.623 259.979 17.081Q260 17.539 260 18L260 18Q260 18.4611 259.979 18.919Q259.958 19.377 259.916 19.8309Q259.874 20.2848 259.811 20.7338Q259.749 21.1828 259.665 21.6259Q259.582 22.069 259.478 22.5053Q259.374 22.9416 259.249 23.3703Q259.125 23.799 258.98 24.2191Q258.836 24.6392 258.671 25.05Q258.507 25.4607 258.323 25.8612Q258.14 26.2617 257.937 26.6512Q257.734 27.0406 257.512 27.4182Q257.291 27.7958 257.051 28.1608Q256.811 28.5258 256.554 28.8775Q256.297 29.2291 256.022 29.5666Q255.747 29.9042 255.456 30.227Q255.165 30.5498 254.857 30.8571Q254.55 31.1645 254.227 31.4558Q253.904 31.7471 253.567 32.0218Q253.229 32.2965 252.877 32.5539Q252.526 32.8114 252.161 33.0511Q251.796 33.2909 251.418 33.5124Q251.041 33.7339 250.651 33.9367Q250.262 34.1396 249.861 34.3233Q249.461 34.5071 249.05 34.6714Q248.639 34.8357 248.219 34.9802Q247.799 35.1247 247.37 35.2491Q246.942 35.3735 246.505 35.4776Q246.069 35.5816 245.626 35.6651Q245.183 35.7486 244.734 35.8114Q244.285 35.8742 243.831 35.9161Q243.377 35.958 242.919 35.979Q242.461 36 242 36L18 36Q17.539 36 17.081 35.979Q16.623 35.958 16.1691 35.9161Q15.7152 35.8742 15.2662 35.8114Q14.8172 35.7486 14.3741 35.6651Q13.931 35.5816 13.4947 35.4776Q13.0584 35.3735 12.6297 35.2491Q12.201 35.1247 11.7809 34.9802Q11.3608 34.8357 10.95 34.6714Q10.5393 34.5071 10.1388 34.3233Q9.73829 34.1396 9.34883 33.9367Q8.95938 33.7339 8.58178 33.5124Q8.20417 33.2909 7.83917 33.0511Q7.47418 32.8114 7.12255 32.5539Q6.77092 32.2965 6.43336 32.0218Q6.0958 31.7471 5.77301 31.4558Q5.45022 31.1645 5.14286 30.8571Q4.83549 30.5498 4.54418 30.227Q4.25286 29.9042 3.97819 29.5666Q3.70352 29.2291 3.44606 28.8775Q3.1886 28.5258 2.94886 28.1608Q2.70913 27.7958 2.48762 27.4182Q2.2661 27.0406 2.06326 26.6512Q1.86042 26.2617 1.67667 25.8612Q1.49291 25.4607 1.32862 25.05Q1.16433 24.6392 1.01983 24.2191Q0.875329 23.799 0.750921 23.3703Q0.626513 22.9416 0.52245 22.5053Q0.418387 22.069 0.334881 21.6259Q0.251374 21.1828 0.188595 20.7338Q0.125815 20.2848 0.0838912 19.8309Q0.041967 19.377 0.0209835 18.919Q0 18.4611 0 18L0 18Q0 17.539 0.0209835 17.081Q0.041967 16.623 0.0838912 16.1691Q0.125815 15.7152 0.188595 15.2662Q0.251374 14.8172 0.334881 14.3741Q0.418387 13.931 0.52245 13.4947Q0.626513 13.0584 0.750921 12.6297Q0.875329 12.201 1.01983 11.7809Q1.16433 11.3608 1.32862 10.95Q1.49291 10.5393 1.67667 10.1388Q1.86042 9.73829 2.06326 9.34883Q2.2661 8.95938 2.48762 8.58178Q2.70913 8.20417 2.94886 7.83917Q3.1886 7.47418 3.44606 7.12255Q3.70352 6.77092 3.97819 6.43336Q4.25286 6.0958 4.54418 5.77301Q4.83549 5.45022 5.14286 5.14286Q5.45022 4.83549 5.77301 4.54418Q6.09581 4.25286 6.43336 3.97819Q6.77092 3.70352 7.12255 3.44606Q7.47418 3.1886 7.83917 2.94886Q8.20417 2.70913 8.58177 2.48762Q8.95938 2.2661 9.34883 2.06326Q9.73829 1.86042 10.1388 1.67667Q10.5393 1.49291 10.95 1.32862Q11.3608 1.16433 11.7809 1.01983Q12.201 0.875329 12.6297 0.750921Q13.0584 0.626513 13.4947 0.52245Q13.931 0.418387 14.3741 0.334881Q14.8172 0.251374 15.2662 0.188595Q15.7152 0.125815 16.1691 0.0838912Q16.623 0.041967 17.081 0.0209835Q17.539 0 18 0Z" id="path_1" />
    <clipPath id="clip_1">
      <use xlink:href="#path_1" />
    </clipPath>
  </defs>
  <g id="search">
    <g id="bg">
      <use stroke="none" fill="#FFFFFF" xlink:href="#path_1" />
      <g clip-path="url(#clip_1)">
        <use xlink:href="#path_1" fill="none" stroke="#E1E1E1" stroke-width="2" />
      </g>
    </g>
    <g id="search-anything" fill="#BABABA" transform="translate(44 2)">
      <path d="M43.3057 16.9971L45.3906 16.9971L45.3906 12.0137Q45.3906 10.6602 44.6934 9.93555Q43.9961 9.21094 42.6494 9.21094Q41.1318 9.21094 40.4346 10.332L40.3252 10.332L40.373 9.7168Q40.4209 8.78027 40.4209 8.52734L40.4209 6.36035L38.3359 6.36035L38.3359 16.9971L40.4209 16.9971L40.4209 13.4014Q40.4209 12.0684 40.8105 11.4736Q41.2002 10.8789 42.0752 10.8789Q43.3057 10.8789 43.3057 12.5332L43.3057 16.9971ZM89.9268 16.9971L87.8418 16.9971L87.8418 12.5332Q87.8418 10.8789 86.6113 10.8789Q85.7363 10.8789 85.3467 11.4736Q84.957 12.0684 84.957 13.4014L84.957 16.9971L82.8721 16.9971L82.8721 6.36035L84.957 6.36035L84.957 8.52734Q84.957 8.78027 84.9092 9.7168L84.8613 10.332L84.9707 10.332Q85.668 9.21094 87.1855 9.21094Q88.5322 9.21094 89.2295 9.93555Q89.9268 10.6602 89.9268 12.0137L89.9268 16.9971ZM93.1191 6.36035Q91.9844 6.36035 91.9844 7.37891Q91.9844 8.4043 93.1191 8.4043Q93.6865 8.4043 93.9702 8.13428Q94.2539 7.86426 94.2539 7.37891Q94.2539 6.36035 93.1191 6.36035ZM81.3271 15.2334Q80.5615 15.4727 80.0146 15.4727Q79.6045 15.4727 79.355 15.2607Q79.1055 15.0488 79.1055 14.6045L79.1055 10.9199L81.2451 10.9199L81.2451 9.35449L79.1055 9.35449L79.1055 7.72754L77.7725 7.72754L77.1709 9.34082L76.0225 10.0381L76.0225 10.9199L77.0205 10.9199L77.0205 14.6045Q77.0205 15.8691 77.5913 16.5015Q78.1621 17.1338 79.4131 17.1338Q80.5479 17.1338 81.3271 16.7852L81.3271 15.2334ZM21.1777 16.9971L20.7744 15.958L20.7197 15.958Q20.1934 16.6211 19.6362 16.8774Q19.0791 17.1338 18.1836 17.1338Q17.083 17.1338 16.4507 16.5049Q15.8184 15.876 15.8184 14.7139Q15.8184 13.4971 16.6694 12.9194Q17.5205 12.3418 19.2363 12.2803L20.5625 12.2393L20.5625 11.9043Q20.5625 10.7422 19.373 10.7422Q18.457 10.7422 17.2197 11.2959L16.5293 9.8877Q17.8486 9.19727 19.4551 9.19727Q20.9932 9.19727 21.8135 9.86719Q22.6338 10.5371 22.6338 11.9043L22.6338 16.9971L21.1777 16.9971ZM56.0273 16.9971L55.624 15.958L55.5693 15.958Q55.043 16.6211 54.4858 16.8774Q53.9287 17.1338 53.0332 17.1338Q51.9326 17.1338 51.3003 16.5049Q50.668 15.876 50.668 14.7139Q50.668 13.4971 51.519 12.9194Q52.3701 12.3418 54.0859 12.2803L55.4121 12.2393L55.4121 11.9043Q55.4121 10.7422 54.2227 10.7422Q53.3066 10.7422 52.0693 11.2959L51.3789 9.8877Q52.6982 9.19727 54.3047 9.19727Q55.8428 9.19727 56.6631 9.86719Q57.4834 10.5371 57.4834 11.9043L57.4834 16.9971L56.0273 16.9971ZM5.60889 16.5186Q6.42578 15.9033 6.42578 14.7275Q6.42578 14.1602 6.22754 13.75Q6.0293 13.3398 5.6123 13.0254Q5.19531 12.7109 4.2998 12.3486Q3.29492 11.9453 2.99756 11.7402Q2.7002 11.5352 2.7002 11.2549Q2.7002 10.7559 3.62305 10.7559Q4.14258 10.7559 4.6416 10.9131Q5.14063 11.0703 5.71484 11.3164L6.34375 9.8125Q5.03809 9.21094 3.65723 9.21094Q2.20801 9.21094 1.41846 9.76807Q0.628906 10.3252 0.628906 11.3438Q0.628906 11.9385 0.816895 12.3452Q1.00488 12.752 1.41846 13.0664Q1.83203 13.3809 2.71387 13.75Q3.3291 14.0098 3.69824 14.2046Q4.06738 14.3994 4.21777 14.5532Q4.36816 14.707 4.36816 14.9531Q4.36816 15.6094 3.2334 15.6094Q2.67969 15.6094 1.95166 15.4248Q1.22363 15.2402 0.642578 14.9668L0.642578 16.6895Q1.15527 16.9082 1.74316 17.021Q2.33105 17.1338 3.16504 17.1338Q4.79199 17.1338 5.60889 16.5186ZM8.62695 16.1152Q9.66602 17.1338 11.5117 17.1338Q12.4072 17.1338 13.0293 17.0005Q13.6514 16.8672 14.1982 16.5938L14.1982 14.9805Q13.5283 15.2949 12.9131 15.4385Q12.2979 15.582 11.6074 15.582Q10.7188 15.582 10.2266 15.083Q9.73438 14.584 9.7002 13.6953L14.6289 13.6953L14.6289 12.6836Q14.6289 11.0566 13.7266 10.1338Q12.8242 9.21094 11.2041 9.21094Q9.50879 9.21094 8.54834 10.2603Q7.58789 11.3096 7.58789 13.2305Q7.58789 15.0967 8.62695 16.1152ZM29.75 9.27246Q29.4697 9.21094 29.0459 9.21094Q28.335 9.21094 27.73 9.604Q27.125 9.99707 26.7695 10.6396L26.667 10.6396L26.3594 9.35449L24.7803 9.35449L24.7803 16.9971L26.8652 16.9971L26.8652 13.1074Q26.8652 12.1846 27.4224 11.6719Q27.9795 11.1592 28.9775 11.1592Q29.3398 11.1592 29.5928 11.2275L29.75 9.27246ZM34.2412 17.1338Q30.6729 17.1338 30.6729 13.2168Q30.6729 11.2686 31.6436 10.2397Q32.6143 9.21094 34.4258 9.21094Q35.752 9.21094 36.8047 9.73047L36.1895 11.3438Q35.6973 11.1455 35.2734 11.019Q34.8496 10.8926 34.4258 10.8926Q32.7988 10.8926 32.7988 13.2031Q32.7988 15.4453 34.4258 15.4453Q35.0273 15.4453 35.54 15.2847Q36.0527 15.124 36.5654 14.7822L36.5654 16.5664Q36.0596 16.8877 35.5435 17.0107Q35.0273 17.1338 34.2412 17.1338ZM64.5996 16.9971L66.6846 16.9971L66.6846 12.0137Q66.6846 10.6533 65.9941 9.93213Q65.3037 9.21094 63.9707 9.21094Q63.1914 9.21094 62.5796 9.49463Q61.9678 9.77832 61.6191 10.332L61.5029 10.332L61.2227 9.35449L59.6299 9.35449L59.6299 16.9971L61.7148 16.9971L61.7148 13.4014Q61.7148 12.0479 62.1045 11.4634Q62.4941 10.8789 63.3691 10.8789Q64.0117 10.8789 64.3057 11.2925Q64.5996 11.7061 64.5996 12.5332L64.5996 16.9971ZM103.4 16.9971L101.315 16.9971L101.315 12.5332Q101.315 11.7061 101.021 11.2925Q100.728 10.8789 100.085 10.8789Q99.21 10.8789 98.8203 11.4634Q98.4307 12.0479 98.4307 13.4014L98.4307 16.9971L96.3457 16.9971L96.3457 9.35449L97.9385 9.35449L98.2188 10.332L98.335 10.332Q98.6836 9.77832 99.2954 9.49463Q99.9072 9.21094 100.687 9.21094Q102.02 9.21094 102.71 9.93213Q103.4 10.6533 103.4 12.0137L103.4 16.9971ZM112.198 10.4141L112.198 9.35449L109.532 9.35449Q109.409 9.32715 108.968 9.26904Q108.527 9.21094 108.206 9.21094Q106.695 9.21094 105.882 9.89453Q105.068 10.5781 105.068 11.8291Q105.068 12.6084 105.42 13.1826Q105.772 13.7568 106.374 14.0166Q105.896 14.2969 105.643 14.5874Q105.39 14.8779 105.39 15.3154Q105.39 15.6641 105.629 15.9751Q105.868 16.2861 106.189 16.4229Q105.355 16.6211 104.925 17.0859Q104.494 17.5508 104.494 18.2412C104.494 18.9111 104.776 19.4318 105.338 19.8032Q106.183 20.3604 107.782 20.3604Q109.874 20.3604 110.992 19.6221Q112.109 18.8838 112.109 17.5439Q112.109 16.498 111.45 15.958Q110.79 15.418 109.532 15.418L108.233 15.418Q107.085 15.418 107.085 14.9668Q107.085 14.666 107.406 14.4199L107.714 14.4541L108.09 14.4746Q109.614 14.4746 110.472 13.7876Q111.33 13.1006 111.33 11.8701Q111.33 11.2344 111.002 10.7217L112.198 10.4141ZM67.7373 9.35449L70.0205 9.35449L71.4629 13.6543Q71.6475 14.2148 71.7158 14.9805L71.7568 14.9805Q71.832 14.2764 72.0508 13.6543L73.4658 9.35449L75.7012 9.35449L72.4678 17.9746Q72.0234 19.1709 71.1997 19.7656Q70.376 20.3604 69.2754 20.3604Q68.7354 20.3604 68.2158 20.2441L68.2158 18.5898Q68.5918 18.6787 69.0361 18.6787Q69.5898 18.6787 70.0034 18.3403Q70.417 18.002 70.6494 17.3184L70.7725 16.9424L67.7373 9.35449ZM92.0732 16.9971L94.1582 16.9971L94.1582 9.35449L92.0732 9.35449L92.0732 16.9971ZM107.341 12.8408Q107.058 12.4785 107.058 11.8564Q107.058 10.4756 108.206 10.4756Q109.341 10.4756 109.341 11.8564Q109.341 12.4785 109.067 12.8408Q108.794 13.2031 108.206 13.2031Q107.625 13.2031 107.341 12.8408ZM10.1787 11.1147Q10.5547 10.6943 11.2178 10.6943Q11.8809 10.6943 12.2705 11.1147Q12.6602 11.5352 12.6738 12.3076L9.74805 12.3076Q9.80273 11.5352 10.1787 11.1147ZM20.5625 13.4561L19.7559 13.4834Q18.8467 13.5107 18.4023 13.8115Q17.958 14.1123 17.958 14.7275Q17.958 15.6094 18.9697 15.6094Q19.6943 15.6094 20.1284 15.1924Q20.5625 14.7754 20.5625 14.085L20.5625 13.4561ZM55.4121 13.4561L54.6055 13.4834Q53.6963 13.5107 53.252 13.8115Q52.8076 14.1123 52.8076 14.7275Q52.8076 15.6094 53.8193 15.6094Q54.5439 15.6094 54.978 15.1924Q55.4121 14.7754 55.4121 14.085L55.4121 13.4561ZM106.712 18.7539Q106.299 18.5078 106.299 18.0771Q106.299 17.6328 106.685 17.3628Q107.071 17.0928 107.646 17.0928L108.726 17.0928Q109.512 17.0928 109.888 17.2568Q110.264 17.4209 110.264 17.8516Q110.264 18.3848 109.628 18.6924Q108.992 19 107.871 19Q107.126 19 106.712 18.7539Z" />
    </g>
    <g id="icons/search/black" transform="translate(13 8)">
      <path d="M0 0L20 0L20 20L0 20L0 0Z" id="bounds" fill="none" stroke="none" />
      <path d="M0 1.11022e-16L3.49409 3.49409" transform="translate(14.08296 13.98768)" id="line" fill="none" stroke="#2E2E2E" stroke-width="2" stroke-linecap="round" stroke-linejoin="round" />
      <path d="M6 12C9.31371 12 12 9.31371 12 6C12 2.68629 9.31371 0 6 0C2.68629 0 0 2.68629 0 6C0 9.31371 2.68629 12 6 12Z" transform="translate(3 3)" id="Oval" fill="none" stroke="#2E2E2E" stroke-width="2" stroke-linecap="round" stroke-linejoin="round" />
    </g>
    <g id="icons/search/black-copy" transform="translate(230 8)">
      <path d="M0 0L20 0L20 20L0 20L0 0Z" id="bounds" fill="none" stroke="none" />
      <path d="M0 1.11022e-16L5.65685 5.65685" transform="translate(7 7)" id="line" fill="none" stroke="#2E2E2E" stroke-width="2" stroke-linecap="round" stroke-linejoin="round" />
      <path d="M0 1.11022e-16L5.65685 5.65685" transform="matrix(-1 0 0 1 12.65685 7)" id="line" fill="none" stroke="#2E2E2E" stroke-width="2" stroke-linecap="round" stroke-linejoin="round" />
    </g>
  </g>
</svg>